<mxfile host="Electron" agent="Mozilla/5.0 (Windows NT 10.0; Win64; x64) AppleWebKit/537.36 (KHTML, like Gecko) draw.io/28.2.5 Chrome/138.0.7204.251 Electron/37.6.1 Safari/537.36" version="28.2.5" pages="4">
  <diagram name="Data Architecture" id="PFyFJQNXw2gLH0k_1Ckn">
    <mxGraphModel dx="2276" dy="1941" grid="1" gridSize="10" guides="1" tooltips="1" connect="1" arrows="1" fold="1" page="1" pageScale="1" pageWidth="850" pageHeight="1100" background="light-dark(#ffffff, #000000)" math="0" shadow="0">
      <root>
        <mxCell id="0" />
        <mxCell id="1" parent="0" />
        <mxCell id="ivf1N7oToqcOWAPLm7AN-1" value="" style="rounded=0;whiteSpace=wrap;html=1;fillColor=none;strokeColor=light-dark(#001DBC,#6B9BFF);dashed=1;fontColor=#ffffff;strokeWidth=3;" parent="1" vertex="1">
          <mxGeometry x="-30" y="80" width="189" height="480" as="geometry" />
        </mxCell>
        <mxCell id="ivf1N7oToqcOWAPLm7AN-2" value="&lt;font face=&quot;Tahoma&quot; style=&quot;font-size: 35px;&quot;&gt;&lt;b style=&quot;&quot;&gt;HIGH LEVEL ARCHITECTURE&lt;/b&gt;&lt;/font&gt;" style="rounded=0;whiteSpace=wrap;html=1;fillColor=none;strokeColor=none;" parent="1" vertex="1">
          <mxGeometry x="200" y="-60" width="520" height="80" as="geometry" />
        </mxCell>
        <mxCell id="ivf1N7oToqcOWAPLm7AN-3" value="&lt;font style=&quot;font-size: 20px;&quot;&gt;Sources&lt;/font&gt;" style="rounded=0;whiteSpace=wrap;html=1;fontSize=16;fillColor=none;strokeColor=none;labelBackgroundColor=default;" parent="1" vertex="1">
          <mxGeometry x="29.5" y="63" width="70" height="30" as="geometry" />
        </mxCell>
        <mxCell id="ivf1N7oToqcOWAPLm7AN-4" value="" style="rounded=0;whiteSpace=wrap;html=1;fillColor=none;strokeColor=light-dark(#001DBC,#6B9BFF);dashed=1;fontColor=#ffffff;strokeWidth=3;" parent="1" vertex="1">
          <mxGeometry x="759" y="80" width="220" height="480" as="geometry" />
        </mxCell>
        <mxCell id="ivf1N7oToqcOWAPLm7AN-5" value="&lt;font style=&quot;font-size: 20px;&quot;&gt;Consumers&lt;/font&gt;" style="rounded=0;whiteSpace=wrap;html=1;fontSize=16;fillColor=none;strokeColor=none;labelBackgroundColor=default;" parent="1" vertex="1">
          <mxGeometry x="835" y="63" width="70" height="30" as="geometry" />
        </mxCell>
        <mxCell id="ivf1N7oToqcOWAPLm7AN-6" value="" style="rounded=0;whiteSpace=wrap;html=1;fillColor=none;strokeColor=light-dark(#9A4C00,#6B9BFF);dashed=1;fontColor=#ffffff;strokeWidth=3;" parent="1" vertex="1">
          <mxGeometry x="200" y="80" width="520" height="480" as="geometry" />
        </mxCell>
        <mxCell id="ivf1N7oToqcOWAPLm7AN-7" value="&lt;font style=&quot;font-size: 20px;&quot;&gt;Data Warehouse&lt;/font&gt;" style="rounded=0;whiteSpace=wrap;html=1;fontSize=16;fillColor=none;strokeColor=none;labelBackgroundColor=default;" parent="1" vertex="1">
          <mxGeometry x="352.5" y="63" width="215" height="30" as="geometry" />
        </mxCell>
        <mxCell id="ivf1N7oToqcOWAPLm7AN-8" value="Bronze Layer" style="rounded=0;whiteSpace=wrap;html=1;fillColor=#9A4C00;fontSize=16;strokeColor=#9A4C00;" parent="1" vertex="1">
          <mxGeometry x="211" y="101" width="150" height="30" as="geometry" />
        </mxCell>
        <mxCell id="ivf1N7oToqcOWAPLm7AN-10" value="" style="rounded=0;whiteSpace=wrap;html=1;fillColor=none;fontSize=16;strokeColor=#9A4C00;strokeWidth=2;" parent="1" vertex="1">
          <mxGeometry x="211" y="140" width="150" height="410" as="geometry" />
        </mxCell>
        <mxCell id="ivf1N7oToqcOWAPLm7AN-11" value="Silver Layer" style="rounded=0;whiteSpace=wrap;html=1;fillColor=#8C8C8C;fontSize=16;strokeColor=#8C8C8C;" parent="1" vertex="1">
          <mxGeometry x="375" y="101" width="160" height="30" as="geometry" />
        </mxCell>
        <mxCell id="ivf1N7oToqcOWAPLm7AN-12" value="" style="rounded=0;whiteSpace=wrap;html=1;fillColor=none;fontSize=16;strokeColor=light-dark(#000000,#ABABAB);strokeWidth=2;" parent="1" vertex="1">
          <mxGeometry x="375" y="140" width="160" height="410" as="geometry" />
        </mxCell>
        <mxCell id="ivf1N7oToqcOWAPLm7AN-13" value="Gold Layer" style="rounded=0;whiteSpace=wrap;html=1;fillColor=light-dark(#8C8C8C,#C0A700);fontSize=16;strokeColor=light-dark(#8C8C8C,#C0A700);" parent="1" vertex="1">
          <mxGeometry x="545" y="101" width="165" height="30" as="geometry" />
        </mxCell>
        <mxCell id="ivf1N7oToqcOWAPLm7AN-14" value="" style="rounded=0;whiteSpace=wrap;html=1;fillColor=none;fontSize=16;strokeColor=light-dark(#8C8C8C,#C0A700);strokeWidth=2;" parent="1" vertex="1">
          <mxGeometry x="545" y="140" width="165" height="410" as="geometry" />
        </mxCell>
        <mxCell id="ivf1N7oToqcOWAPLm7AN-16" value="" style="image;aspect=fixed;html=1;points=[];align=center;fontSize=12;image=img/lib/azure2/general/Folder_Blank.svg;" parent="1" vertex="1">
          <mxGeometry x="26.86999999999999" y="112" width="61.6" height="50" as="geometry" />
        </mxCell>
        <mxCell id="ivf1N7oToqcOWAPLm7AN-17" value="" style="image;aspect=fixed;html=1;points=[];align=center;fontSize=12;image=img/lib/azure2/general/File.svg;" parent="1" vertex="1">
          <mxGeometry x="68.67" y="142" width="32.46" height="40" as="geometry" />
        </mxCell>
        <mxCell id="ivf1N7oToqcOWAPLm7AN-18" value="" style="image;aspect=fixed;html=1;points=[];align=center;fontSize=12;image=img/lib/azure2/general/Folder_Blank.svg;" parent="1" vertex="1">
          <mxGeometry x="26.869999999999997" y="272" width="61.6" height="50" as="geometry" />
        </mxCell>
        <mxCell id="ivf1N7oToqcOWAPLm7AN-19" value="" style="image;aspect=fixed;html=1;points=[];align=center;fontSize=12;image=img/lib/azure2/general/File.svg;" parent="1" vertex="1">
          <mxGeometry x="68.67000000000002" y="302" width="32.46" height="40" as="geometry" />
        </mxCell>
        <mxCell id="ivf1N7oToqcOWAPLm7AN-21" value="CRM" style="rounded=0;whiteSpace=wrap;html=1;fontSize=16;fillColor=none;strokeColor=none;" parent="1" vertex="1">
          <mxGeometry x="22.67" y="182" width="70" height="30" as="geometry" />
        </mxCell>
        <mxCell id="ivf1N7oToqcOWAPLm7AN-22" value="ERP" style="rounded=0;whiteSpace=wrap;html=1;fontSize=16;fillColor=none;strokeColor=none;" parent="1" vertex="1">
          <mxGeometry x="26.870000000000005" y="342" width="70" height="30" as="geometry" />
        </mxCell>
        <mxCell id="ivf1N7oToqcOWAPLm7AN-23" value="&lt;font style=&quot;font-size: 14px;&quot;&gt;&lt;b style=&quot;&quot;&gt;Object type:&amp;nbsp;&lt;/b&gt;&lt;span style=&quot;background-color: transparent; color: light-dark(rgb(0, 0, 0), rgb(255, 255, 255));&quot;&gt;CSV Files&lt;/span&gt;&lt;/font&gt;&lt;div&gt;&lt;font style=&quot;font-size: 14px;&quot;&gt;&lt;br&gt;&lt;/font&gt;&lt;/div&gt;&lt;div&gt;&lt;font style=&quot;font-size: 14px;&quot;&gt;&lt;b style=&quot;&quot;&gt;Interface:&amp;nbsp;&lt;/b&gt;&lt;span style=&quot;background-color: transparent; color: light-dark(rgb(0, 0, 0), rgb(255, 255, 255));&quot;&gt;Files in folders&lt;/span&gt;&lt;/font&gt;&lt;/div&gt;" style="rounded=0;whiteSpace=wrap;html=1;fontSize=16;fillColor=none;strokeColor=none;" parent="1" vertex="1">
          <mxGeometry x="-20.5" y="420" width="170" height="100" as="geometry" />
        </mxCell>
        <mxCell id="ivf1N7oToqcOWAPLm7AN-26" value="" style="html=1;verticalLabelPosition=bottom;align=center;labelBackgroundColor=#ffffff;verticalAlign=top;strokeWidth=2;strokeColor=#000000;shadow=0;dashed=0;shape=mxgraph.ios7.icons.data;fillColor=#9A4C00;" parent="1" vertex="1">
          <mxGeometry x="237" y="207" width="90" height="108" as="geometry" />
        </mxCell>
        <mxCell id="ivf1N7oToqcOWAPLm7AN-27" value="" style="html=1;verticalLabelPosition=bottom;align=center;labelBackgroundColor=#ffffff;verticalAlign=top;strokeWidth=2;strokeColor=#000000;shadow=0;dashed=0;shape=mxgraph.ios7.icons.data;fillColor=#8C8C8C;" parent="1" vertex="1">
          <mxGeometry x="413" y="207" width="90" height="108" as="geometry" />
        </mxCell>
        <mxCell id="ivf1N7oToqcOWAPLm7AN-28" value="" style="html=1;verticalLabelPosition=bottom;align=center;labelBackgroundColor=#ffffff;verticalAlign=top;strokeWidth=2;strokeColor=#000000;shadow=0;dashed=0;shape=mxgraph.ios7.icons.data;fillColor=light-dark(#8C8C8C,#C0A700);" parent="1" vertex="1">
          <mxGeometry x="588.5" y="207" width="90" height="108" as="geometry" />
        </mxCell>
        <mxCell id="ivf1N7oToqcOWAPLm7AN-30" value="" style="shape=singleArrow;whiteSpace=wrap;html=1;arrowWidth=0.41666412353515625;arrowSize=0.35999923706054915;strokeColor=none;fillColor=light-dark(#001DBC,#6B9BFF);" parent="1" vertex="1">
          <mxGeometry x="134" y="237" width="94" height="48" as="geometry" />
        </mxCell>
        <mxCell id="ivf1N7oToqcOWAPLm7AN-31" value="" style="shape=singleArrow;whiteSpace=wrap;html=1;arrowWidth=0.41666412353515625;arrowSize=0.35999923706054915;strokeColor=none;fillColor=light-dark(#001DBC,#6B9BFF);" parent="1" vertex="1">
          <mxGeometry x="335" y="237" width="75" height="48" as="geometry" />
        </mxCell>
        <mxCell id="ivf1N7oToqcOWAPLm7AN-32" value="" style="shape=singleArrow;whiteSpace=wrap;html=1;arrowWidth=0.41666412353515625;arrowSize=0.35999923706054915;strokeColor=none;fillColor=light-dark(#001DBC,#6B9BFF);" parent="1" vertex="1">
          <mxGeometry x="506.5" y="237" width="75" height="48" as="geometry" />
        </mxCell>
        <mxCell id="ivf1N7oToqcOWAPLm7AN-33" value="" style="shape=singleArrow;whiteSpace=wrap;html=1;arrowWidth=0.41666412353515625;arrowSize=0.35999923706054915;strokeColor=none;fillColor=light-dark(#001DBC,#6B9BFF);" parent="1" vertex="1">
          <mxGeometry x="690" y="237" width="95" height="48" as="geometry" />
        </mxCell>
        <mxCell id="ivf1N7oToqcOWAPLm7AN-34" value="" style="image;aspect=fixed;html=1;points=[];align=center;fontSize=12;image=img/lib/azure2/general/Code.svg;" parent="1" vertex="1">
          <mxGeometry x="263.54" y="171" width="36.92" height="30" as="geometry" />
        </mxCell>
        <mxCell id="ivf1N7oToqcOWAPLm7AN-35" value="" style="image;aspect=fixed;html=1;points=[];align=center;fontSize=12;image=img/lib/azure2/general/Code.svg;" parent="1" vertex="1">
          <mxGeometry x="439.54" y="170" width="36.92" height="30" as="geometry" />
        </mxCell>
        <mxCell id="ivf1N7oToqcOWAPLm7AN-37" value="&lt;font style=&quot;font-size: 12px;&quot;&gt;Stored Procedure&lt;/font&gt;" style="rounded=0;whiteSpace=wrap;html=1;fontSize=16;fillColor=none;strokeColor=none;" parent="1" vertex="1">
          <mxGeometry x="220.5" y="141" width="123" height="30" as="geometry" />
        </mxCell>
        <mxCell id="ivf1N7oToqcOWAPLm7AN-38" value="&lt;font style=&quot;font-size: 12px;&quot;&gt;Stored Procedure&lt;/font&gt;" style="rounded=0;whiteSpace=wrap;html=1;fontSize=16;fillColor=none;strokeColor=none;" parent="1" vertex="1">
          <mxGeometry x="396.5" y="141" width="123" height="30" as="geometry" />
        </mxCell>
        <mxCell id="ivf1N7oToqcOWAPLm7AN-39" value="" style="image;aspect=fixed;html=1;points=[];align=center;fontSize=12;image=img/lib/azure2/analytics/Power_BI_Embedded.svg;" parent="1" vertex="1">
          <mxGeometry x="827" y="119.25" width="31.5" height="42" as="geometry" />
        </mxCell>
        <mxCell id="ivf1N7oToqcOWAPLm7AN-40" value="" style="verticalLabelPosition=bottom;sketch=0;aspect=fixed;html=1;verticalAlign=top;strokeColor=none;align=center;outlineConnect=0;shape=mxgraph.citrix.reporting;" parent="1" vertex="1">
          <mxGeometry x="867" y="119" width="37.88" height="42.5" as="geometry" />
        </mxCell>
        <mxCell id="ivf1N7oToqcOWAPLm7AN-41" value="" style="sketch=0;points=[[0,0,0],[0.25,0,0],[0.5,0,0],[0.75,0,0],[1,0,0],[0,1,0],[0.25,1,0],[0.5,1,0],[0.75,1,0],[1,1,0],[0,0.25,0],[0,0.5,0],[0,0.75,0],[1,0.25,0],[1,0.5,0],[1,0.75,0]];outlineConnect=0;fontColor=#232F3E;fillColor=#8C4FFF;strokeColor=#ffffff;dashed=0;verticalLabelPosition=bottom;verticalAlign=top;align=center;html=1;fontSize=12;fontStyle=0;aspect=fixed;shape=mxgraph.aws4.resourceIcon;resIcon=mxgraph.aws4.elasticsearch_service;" parent="1" vertex="1">
          <mxGeometry x="847" y="249" width="50" height="50" as="geometry" />
        </mxCell>
        <mxCell id="ivf1N7oToqcOWAPLm7AN-42" value="" style="image;sketch=0;aspect=fixed;html=1;points=[];align=center;fontSize=12;image=img/lib/mscae/Cognitive_Services.svg;" parent="1" vertex="1">
          <mxGeometry x="848.5" y="397" width="50" height="30" as="geometry" />
        </mxCell>
        <mxCell id="ivf1N7oToqcOWAPLm7AN-43" value="&lt;font style=&quot;font-size: 12px;&quot;&gt;BI and Reporting&lt;/font&gt;" style="rounded=0;whiteSpace=wrap;html=1;fontSize=16;fillColor=none;strokeColor=none;" parent="1" vertex="1">
          <mxGeometry x="807" y="161.5" width="123" height="30" as="geometry" />
        </mxCell>
        <mxCell id="ivf1N7oToqcOWAPLm7AN-44" value="&lt;span style=&quot;font-size: 12px;&quot;&gt;Ad-hoc queries&lt;/span&gt;" style="rounded=0;whiteSpace=wrap;html=1;fontSize=16;fillColor=none;strokeColor=none;" parent="1" vertex="1">
          <mxGeometry x="812" y="299" width="123" height="30" as="geometry" />
        </mxCell>
        <mxCell id="ivf1N7oToqcOWAPLm7AN-45" value="&lt;span style=&quot;font-size: 12px;&quot;&gt;Machine Learning&lt;/span&gt;" style="rounded=0;whiteSpace=wrap;html=1;fontSize=16;fillColor=none;strokeColor=none;" parent="1" vertex="1">
          <mxGeometry x="812" y="437" width="123" height="30" as="geometry" />
        </mxCell>
        <mxCell id="ivf1N7oToqcOWAPLm7AN-46" value="Raw data" style="rounded=0;whiteSpace=wrap;html=1;fontSize=16;fillColor=none;strokeColor=none;" parent="1" vertex="1">
          <mxGeometry x="247" y="310" width="70" height="30" as="geometry" />
        </mxCell>
        <mxCell id="ivf1N7oToqcOWAPLm7AN-48" value="&lt;font style=&quot;font-size: 12px;&quot;&gt;Cleaned, standardized data&lt;/font&gt;" style="rounded=0;whiteSpace=wrap;html=1;fontSize=16;fillColor=none;strokeColor=none;" parent="1" vertex="1">
          <mxGeometry x="375" y="311" width="160" height="30" as="geometry" />
        </mxCell>
        <mxCell id="ivf1N7oToqcOWAPLm7AN-49" value="Business ready data" style="rounded=0;whiteSpace=wrap;html=1;fontSize=16;fillColor=none;strokeColor=none;" parent="1" vertex="1">
          <mxGeometry x="550" y="310" width="160" height="30" as="geometry" />
        </mxCell>
        <mxCell id="ivf1N7oToqcOWAPLm7AN-50" value="" style="endArrow=none;html=1;rounded=0;strokeColor=#9A4C00;" parent="1" edge="1">
          <mxGeometry width="50" height="50" relative="1" as="geometry">
            <mxPoint x="214.5" y="340" as="sourcePoint" />
            <mxPoint x="314" y="340" as="targetPoint" />
            <Array as="points">
              <mxPoint x="357" y="340" />
            </Array>
          </mxGeometry>
        </mxCell>
        <mxCell id="ivf1N7oToqcOWAPLm7AN-51" value="" style="endArrow=none;html=1;rounded=0;strokeColor=#8C8C8C;" parent="1" edge="1">
          <mxGeometry width="50" height="50" relative="1" as="geometry">
            <mxPoint x="380" y="341" as="sourcePoint" />
            <mxPoint x="479.5" y="341" as="targetPoint" />
            <Array as="points">
              <mxPoint x="530" y="341" />
            </Array>
          </mxGeometry>
        </mxCell>
        <mxCell id="ivf1N7oToqcOWAPLm7AN-52" value="" style="endArrow=none;html=1;rounded=0;strokeColor=light-dark(#8C8C8C,#C0A700);entryX=0.859;entryY=0.975;entryDx=0;entryDy=0;entryPerimeter=0;" parent="1" edge="1">
          <mxGeometry width="50" height="50" relative="1" as="geometry">
            <mxPoint x="550" y="339.49" as="sourcePoint" />
            <mxPoint x="683.4399999999998" y="339.25" as="targetPoint" />
            <Array as="points">
              <mxPoint x="706" y="339" />
            </Array>
          </mxGeometry>
        </mxCell>
        <mxCell id="ivf1N7oToqcOWAPLm7AN-54" value="&lt;div style=&quot;&quot;&gt;&lt;font style=&quot;font-size: 12px;&quot;&gt;&lt;b style=&quot;background-color: transparent; color: light-dark(rgb(0, 0, 0), rgb(255, 255, 255));&quot;&gt;&lt;u style=&quot;&quot;&gt;Object type:&lt;/u&gt; &lt;/b&gt;&lt;span style=&quot;background-color: transparent; color: light-dark(rgb(0, 0, 0), rgb(255, 255, 255));&quot;&gt;Tables&lt;/span&gt;&lt;/font&gt;&lt;/div&gt;&lt;div&gt;&lt;font style=&quot;font-size: 12px;&quot;&gt;&lt;font style=&quot;&quot;&gt;&lt;b style=&quot;&quot;&gt;&lt;u&gt;Load:&lt;/u&gt;&lt;/b&gt;&lt;/font&gt;&lt;span style=&quot;background-color: transparent; color: light-dark(rgb(0, 0, 0), rgb(255, 255, 255));&quot;&gt;&amp;nbsp; &amp;nbsp; &amp;nbsp; - Batch Processing&lt;/span&gt;&lt;/font&gt;&lt;/div&gt;&lt;div&gt;&lt;font style=&quot;font-size: 12px;&quot;&gt;&amp;nbsp; &amp;nbsp; &amp;nbsp; &amp;nbsp; &amp;nbsp; &amp;nbsp; - Full Load&lt;/font&gt;&lt;/div&gt;&lt;div&gt;&lt;font style=&quot;font-size: 12px;&quot;&gt;&amp;nbsp; &amp;nbsp; &amp;nbsp; &amp;nbsp; &amp;nbsp; &amp;nbsp; - Truncate &amp;amp; Insert&lt;/font&gt;&lt;/div&gt;&lt;div&gt;&lt;font style=&quot;font-size: 12px;&quot;&gt;&lt;font style=&quot;&quot;&gt;&lt;b style=&quot;&quot;&gt;&lt;u&gt;Transformations:&lt;/u&gt;&amp;nbsp;&lt;/b&gt;&lt;/font&gt;&lt;span style=&quot;background-color: transparent; color: light-dark(rgb(0, 0, 0), rgb(255, 255, 255));&quot;&gt;Data cleansing, standardization, normalization, enrichment, derived columns&lt;/span&gt;&lt;/font&gt;&lt;/div&gt;&lt;div&gt;&lt;font style=&quot;font-size: 12px;&quot;&gt;&lt;b style=&quot;&quot;&gt;&lt;u&gt;Data Model:&lt;/u&gt; &lt;/b&gt;None (as-is)&lt;/font&gt;&lt;/div&gt;" style="rounded=0;whiteSpace=wrap;html=1;fontSize=16;fillColor=none;strokeColor=none;align=left;" parent="1" vertex="1">
          <mxGeometry x="379.5" y="340" width="150.5" height="190" as="geometry" />
        </mxCell>
        <mxCell id="ivf1N7oToqcOWAPLm7AN-55" value="&lt;div style=&quot;&quot;&gt;&lt;font style=&quot;font-size: 12px;&quot;&gt;&lt;b style=&quot;background-color: transparent; color: light-dark(rgb(0, 0, 0), rgb(255, 255, 255));&quot;&gt;&lt;u style=&quot;&quot;&gt;Object type:&lt;/u&gt; &lt;/b&gt;&lt;span style=&quot;background-color: transparent; color: light-dark(rgb(0, 0, 0), rgb(255, 255, 255));&quot;&gt;Tables&lt;/span&gt;&lt;/font&gt;&lt;/div&gt;&lt;div&gt;&lt;font style=&quot;font-size: 12px;&quot;&gt;&lt;b style=&quot;&quot;&gt;&lt;u&gt;Load&lt;/u&gt;:&lt;/b&gt;&lt;/font&gt;&lt;/div&gt;&lt;div&gt;&lt;font style=&quot;font-size: 12px;&quot;&gt;&amp;nbsp; &amp;nbsp; &amp;nbsp; &amp;nbsp;- Batch Processing&lt;/font&gt;&lt;/div&gt;&lt;div&gt;&lt;font style=&quot;font-size: 12px;&quot;&gt;&amp;nbsp; &amp;nbsp; &amp;nbsp; &amp;nbsp;- Full Load&lt;/font&gt;&lt;/div&gt;&lt;div&gt;&lt;font style=&quot;font-size: 12px;&quot;&gt;&amp;nbsp; &amp;nbsp; &amp;nbsp; &amp;nbsp;- Truncate &amp;amp; Insert&lt;/font&gt;&lt;/div&gt;&lt;div&gt;&lt;font style=&quot;font-size: 12px;&quot;&gt;&lt;b style=&quot;&quot;&gt;No &lt;u&gt;Transformations&lt;/u&gt;&lt;/b&gt;&lt;/font&gt;&lt;/div&gt;&lt;div&gt;&lt;font style=&quot;font-size: 12px;&quot;&gt;&lt;b style=&quot;&quot;&gt;&lt;u&gt;Data Model:&lt;/u&gt; &lt;/b&gt;None (as-is)&lt;/font&gt;&lt;/div&gt;" style="rounded=0;whiteSpace=wrap;html=1;fontSize=16;fillColor=none;strokeColor=none;align=left;" parent="1" vertex="1">
          <mxGeometry x="214" y="345" width="149" height="126" as="geometry" />
        </mxCell>
        <mxCell id="ivf1N7oToqcOWAPLm7AN-56" value="&lt;div style=&quot;&quot;&gt;&lt;font style=&quot;font-size: 12px;&quot;&gt;&lt;b style=&quot;background-color: transparent; color: light-dark(rgb(0, 0, 0), rgb(255, 255, 255));&quot;&gt;&lt;u style=&quot;&quot;&gt;Object type:&lt;/u&gt; &lt;/b&gt;&lt;span style=&quot;background-color: transparent; color: light-dark(rgb(0, 0, 0), rgb(255, 255, 255));&quot;&gt;Views&lt;/span&gt;&lt;/font&gt;&lt;/div&gt;&lt;div&gt;&lt;font style=&quot;&quot;&gt;&lt;font style=&quot;font-size: 12px;&quot;&gt;&lt;b style=&quot;&quot;&gt;No &lt;u&gt;Load&lt;/u&gt;&lt;/b&gt;&lt;/font&gt;&lt;/font&gt;&lt;/div&gt;&lt;div&gt;&lt;font style=&quot;&quot;&gt;&lt;font style=&quot;font-size: 12px;&quot;&gt;&lt;b style=&quot;&quot;&gt;&lt;u&gt;Transformations&lt;/u&gt;:&amp;nbsp;&lt;/b&gt;&lt;/font&gt;&lt;/font&gt;&lt;/div&gt;&lt;div&gt;&lt;font style=&quot;font-size: 12px;&quot;&gt;&lt;span style=&quot;background-color: transparent; color: light-dark(rgb(0, 0, 0), rgb(255, 255, 255));&quot;&gt;Data integration, aggregation, Business Logic&lt;/span&gt;&lt;/font&gt;&lt;/div&gt;&lt;div&gt;&lt;font style=&quot;font-size: 12px;&quot;&gt;&lt;b style=&quot;&quot;&gt;&lt;u&gt;Data Model:&lt;/u&gt;&amp;nbsp;&lt;/b&gt;&lt;/font&gt;&lt;/div&gt;&lt;div&gt;&lt;font style=&quot;font-size: 12px;&quot;&gt;Star schema, flat tables, Aggregated tables&lt;/font&gt;&lt;/div&gt;" style="rounded=0;whiteSpace=wrap;html=1;fontSize=16;fillColor=none;strokeColor=none;align=left;" parent="1" vertex="1">
          <mxGeometry x="552" y="341" width="151" height="180" as="geometry" />
        </mxCell>
        <mxCell id="ivf1N7oToqcOWAPLm7AN-57" value="" style="image;aspect=fixed;html=1;points=[];align=center;fontSize=12;image=img/lib/azure2/databases/SQL_Server.svg;" parent="1" vertex="1">
          <mxGeometry x="200" y="48" width="28" height="28" as="geometry" />
        </mxCell>
        <mxCell id="ivf1N7oToqcOWAPLm7AN-58" value="SQL Server" style="text;html=1;align=center;verticalAlign=middle;resizable=0;points=[];autosize=1;strokeColor=none;fillColor=none;" parent="1" vertex="1">
          <mxGeometry x="210.46" y="46" width="90" height="30" as="geometry" />
        </mxCell>
      </root>
    </mxGraphModel>
  </diagram>
  <diagram id="4ZwslVWttQ3cfrTSGD8X" name="Data Flow Model">
    <mxGraphModel dx="1489" dy="1294" grid="1" gridSize="10" guides="1" tooltips="1" connect="1" arrows="1" fold="1" page="0" pageScale="1" pageWidth="850" pageHeight="1100" math="0" shadow="0">
      <root>
        <mxCell id="0" />
        <mxCell id="1" parent="0" />
        <mxCell id="KT3nR8gtuUmP--sGIyY2-1" value="" style="rounded=0;whiteSpace=wrap;html=1;fillColor=none;strokeColor=light-dark(#001DBC,#6B9BFF);dashed=1;fontColor=#ffffff;strokeWidth=3;" parent="1" vertex="1">
          <mxGeometry x="190" y="87" width="189" height="480" as="geometry" />
        </mxCell>
        <mxCell id="KT3nR8gtuUmP--sGIyY2-2" value="&lt;font style=&quot;font-size: 20px;&quot;&gt;Sources&lt;/font&gt;" style="rounded=0;whiteSpace=wrap;html=1;fontSize=16;fillColor=none;strokeColor=none;labelBackgroundColor=default;" parent="1" vertex="1">
          <mxGeometry x="249.5" y="70" width="70" height="30" as="geometry" />
        </mxCell>
        <mxCell id="KT3nR8gtuUmP--sGIyY2-3" value="" style="image;aspect=fixed;html=1;points=[];align=center;fontSize=12;image=img/lib/azure2/general/Folder_Blank.svg;" parent="1" vertex="1">
          <mxGeometry x="246.87" y="199" width="61.6" height="50" as="geometry" />
        </mxCell>
        <mxCell id="KT3nR8gtuUmP--sGIyY2-4" value="" style="image;aspect=fixed;html=1;points=[];align=center;fontSize=12;image=img/lib/azure2/general/File.svg;" parent="1" vertex="1">
          <mxGeometry x="288.67" y="229" width="32.46" height="40" as="geometry" />
        </mxCell>
        <mxCell id="KT3nR8gtuUmP--sGIyY2-5" value="" style="image;aspect=fixed;html=1;points=[];align=center;fontSize=12;image=img/lib/azure2/general/Folder_Blank.svg;" parent="1" vertex="1">
          <mxGeometry x="246.87" y="407" width="61.6" height="50" as="geometry" />
        </mxCell>
        <mxCell id="KT3nR8gtuUmP--sGIyY2-6" value="" style="image;aspect=fixed;html=1;points=[];align=center;fontSize=12;image=img/lib/azure2/general/File.svg;" parent="1" vertex="1">
          <mxGeometry x="288.67" y="437" width="32.46" height="40" as="geometry" />
        </mxCell>
        <mxCell id="KT3nR8gtuUmP--sGIyY2-7" value="CRM" style="rounded=0;whiteSpace=wrap;html=1;fontSize=16;fillColor=none;strokeColor=none;" parent="1" vertex="1">
          <mxGeometry x="242.67000000000002" y="269" width="70" height="30" as="geometry" />
        </mxCell>
        <mxCell id="KT3nR8gtuUmP--sGIyY2-8" value="ERP" style="rounded=0;whiteSpace=wrap;html=1;fontSize=16;fillColor=none;strokeColor=none;" parent="1" vertex="1">
          <mxGeometry x="246.87" y="477" width="70" height="30" as="geometry" />
        </mxCell>
        <mxCell id="H0Stomoi2ppmm1cZTyuX-1" value="&lt;font face=&quot;Tahoma&quot; style=&quot;font-size: 50px;&quot;&gt;&lt;b style=&quot;&quot;&gt;DATA FLOW DIAGRAM&lt;/b&gt;&lt;/font&gt;" style="rounded=0;whiteSpace=wrap;html=1;fillColor=none;strokeColor=none;" parent="1" vertex="1">
          <mxGeometry x="400" y="-100" width="870" height="80" as="geometry" />
        </mxCell>
        <mxCell id="sSWAKVsidCn2CHOvdKgf-1" value="&lt;font style=&quot;font-size: 30px;&quot;&gt;Bronze Layer&lt;/font&gt;" style="rounded=0;whiteSpace=wrap;html=1;fillColor=#9A4C00;fontSize=16;strokeColor=#9A4C00;" parent="1" vertex="1">
          <mxGeometry x="470" y="60" width="280" height="57" as="geometry" />
        </mxCell>
        <mxCell id="sSWAKVsidCn2CHOvdKgf-2" value="" style="rounded=0;whiteSpace=wrap;html=1;fillColor=none;fontSize=16;strokeColor=#9A4C00;strokeWidth=2;" parent="1" vertex="1">
          <mxGeometry x="470" y="127" width="280" height="443" as="geometry" />
        </mxCell>
        <mxCell id="sSWAKVsidCn2CHOvdKgf-3" value="&lt;font style=&quot;font-size: 30px;&quot;&gt;Silver Layer&lt;/font&gt;" style="rounded=0;whiteSpace=wrap;html=1;fillColor=#8C8C8C;fontSize=16;strokeColor=#8C8C8C;" parent="1" vertex="1">
          <mxGeometry x="780" y="60" width="290" height="57" as="geometry" />
        </mxCell>
        <mxCell id="sSWAKVsidCn2CHOvdKgf-4" value="" style="rounded=0;whiteSpace=wrap;html=1;fillColor=none;fontSize=16;strokeColor=light-dark(#000000,#ABABAB);strokeWidth=2;" parent="1" vertex="1">
          <mxGeometry x="780" y="127" width="290" height="443" as="geometry" />
        </mxCell>
        <mxCell id="sSWAKVsidCn2CHOvdKgf-5" value="&lt;font style=&quot;font-size: 30px;&quot;&gt;Gold Layer&lt;/font&gt;" style="rounded=0;whiteSpace=wrap;html=1;fillColor=light-dark(#8C8C8C,#C0A700);fontSize=16;strokeColor=light-dark(#8C8C8C,#C0A700);" parent="1" vertex="1">
          <mxGeometry x="1100" y="60" width="310" height="57" as="geometry" />
        </mxCell>
        <mxCell id="sSWAKVsidCn2CHOvdKgf-6" value="" style="rounded=0;whiteSpace=wrap;html=1;fillColor=none;fontSize=16;strokeColor=light-dark(#8C8C8C,#C0A700);strokeWidth=2;" parent="1" vertex="1">
          <mxGeometry x="1100" y="127" width="310" height="443" as="geometry" />
        </mxCell>
        <mxCell id="sSWAKVsidCn2CHOvdKgf-7" value="&lt;font style=&quot;font-size: 20px;&quot;&gt;crm_sales_details&lt;/font&gt;" style="rounded=0;whiteSpace=wrap;html=1;fontSize=16;fillColor=#9A4C00;strokeColor=none;fontColor=#000000;" parent="1" vertex="1">
          <mxGeometry x="495" y="159" width="230" height="40" as="geometry" />
        </mxCell>
        <mxCell id="sSWAKVsidCn2CHOvdKgf-10" value="&lt;font style=&quot;font-size: 20px;&quot;&gt;crm_cust_info&lt;/font&gt;" style="rounded=0;whiteSpace=wrap;html=1;fontSize=16;fillColor=#9A4C00;strokeColor=none;fontColor=#000000;" parent="1" vertex="1">
          <mxGeometry x="495" y="220" width="230" height="40" as="geometry" />
        </mxCell>
        <mxCell id="sSWAKVsidCn2CHOvdKgf-11" value="&lt;font style=&quot;font-size: 20px;&quot;&gt;crm_prd_info&lt;/font&gt;" style="rounded=0;whiteSpace=wrap;html=1;fontSize=16;fillColor=#9A4C00;strokeColor=none;fontColor=#000000;" parent="1" vertex="1">
          <mxGeometry x="495" y="280" width="230" height="40" as="geometry" />
        </mxCell>
        <mxCell id="sSWAKVsidCn2CHOvdKgf-12" value="&lt;font style=&quot;font-size: 20px;&quot;&gt;erp_cust_az12&lt;/font&gt;" style="rounded=0;whiteSpace=wrap;html=1;fontSize=16;fillColor=#9A4C00;strokeColor=none;fontColor=#000000;" parent="1" vertex="1">
          <mxGeometry x="495" y="363.5" width="230" height="40" as="geometry" />
        </mxCell>
        <mxCell id="sSWAKVsidCn2CHOvdKgf-13" value="&lt;font style=&quot;font-size: 20px;&quot;&gt;erp_loc_a101&lt;/font&gt;" style="rounded=0;whiteSpace=wrap;html=1;fontSize=16;fillColor=#9A4C00;strokeColor=none;fontColor=#000000;" parent="1" vertex="1">
          <mxGeometry x="495" y="424.5" width="230" height="40" as="geometry" />
        </mxCell>
        <mxCell id="sSWAKVsidCn2CHOvdKgf-14" value="&lt;font style=&quot;font-size: 20px;&quot;&gt;rep_px_cat_g1v2&lt;/font&gt;" style="rounded=0;whiteSpace=wrap;html=1;fontSize=16;fillColor=#9A4C00;strokeColor=none;fontColor=#000000;" parent="1" vertex="1">
          <mxGeometry x="495" y="484.5" width="230" height="40" as="geometry" />
        </mxCell>
        <mxCell id="sSWAKVsidCn2CHOvdKgf-15" value="&lt;font style=&quot;font-size: 20px;&quot;&gt;crm_sales_details&lt;/font&gt;" style="rounded=0;whiteSpace=wrap;html=1;fontSize=16;fillColor=#8C8C8C;strokeColor=none;fontColor=#000000;" parent="1" vertex="1">
          <mxGeometry x="810" y="159" width="230" height="40" as="geometry" />
        </mxCell>
        <mxCell id="sSWAKVsidCn2CHOvdKgf-16" value="&lt;font style=&quot;font-size: 20px;&quot;&gt;crm_cust_info&lt;/font&gt;" style="rounded=0;whiteSpace=wrap;html=1;fontSize=16;fillColor=#8C8C8C;strokeColor=none;fontColor=#000000;" parent="1" vertex="1">
          <mxGeometry x="810" y="220" width="230" height="40" as="geometry" />
        </mxCell>
        <mxCell id="sSWAKVsidCn2CHOvdKgf-17" value="&lt;font style=&quot;font-size: 20px;&quot;&gt;crm_prd_info&lt;/font&gt;" style="rounded=0;whiteSpace=wrap;html=1;fontSize=16;fillColor=#8C8C8C;strokeColor=none;fontColor=#000000;" parent="1" vertex="1">
          <mxGeometry x="810" y="280" width="230" height="40" as="geometry" />
        </mxCell>
        <mxCell id="sSWAKVsidCn2CHOvdKgf-18" value="&lt;font style=&quot;font-size: 20px;&quot;&gt;erp_cust_az12&lt;/font&gt;" style="rounded=0;whiteSpace=wrap;html=1;fontSize=16;fillColor=#8C8C8C;strokeColor=none;fontColor=#000000;" parent="1" vertex="1">
          <mxGeometry x="810" y="363.5" width="230" height="40" as="geometry" />
        </mxCell>
        <mxCell id="sSWAKVsidCn2CHOvdKgf-19" value="&lt;font style=&quot;font-size: 20px;&quot;&gt;erp_loc_a101&lt;/font&gt;" style="rounded=0;whiteSpace=wrap;html=1;fontSize=16;fillColor=#8C8C8C;strokeColor=none;fontColor=#000000;" parent="1" vertex="1">
          <mxGeometry x="810" y="424.5" width="230" height="40" as="geometry" />
        </mxCell>
        <mxCell id="sSWAKVsidCn2CHOvdKgf-20" value="&lt;font style=&quot;font-size: 20px;&quot;&gt;rep_px_cat_g1v2&lt;/font&gt;" style="rounded=0;whiteSpace=wrap;html=1;fontSize=16;fillColor=#8C8C8C;strokeColor=none;fontColor=#000000;" parent="1" vertex="1">
          <mxGeometry x="810" y="484.5" width="230" height="40" as="geometry" />
        </mxCell>
        <mxCell id="sSWAKVsidCn2CHOvdKgf-21" value="&lt;font style=&quot;font-size: 20px;&quot;&gt;fact_sales&lt;/font&gt;" style="rounded=0;whiteSpace=wrap;html=1;fontSize=16;fillColor=light-dark(#8C8C8C,#C0A700);strokeColor=none;fontColor=#000000;" parent="1" vertex="1">
          <mxGeometry x="1140" y="189" width="230" height="40" as="geometry" />
        </mxCell>
        <mxCell id="sSWAKVsidCn2CHOvdKgf-22" value="&lt;font style=&quot;font-size: 20px;&quot;&gt;dim_customers&lt;/font&gt;" style="rounded=0;whiteSpace=wrap;html=1;fontSize=16;fillColor=light-dark(#8C8C8C,#C0A700);strokeColor=none;fontColor=#000000;" parent="1" vertex="1">
          <mxGeometry x="1140" y="307" width="230" height="40" as="geometry" />
        </mxCell>
        <mxCell id="sSWAKVsidCn2CHOvdKgf-23" value="&lt;font style=&quot;font-size: 20px;&quot;&gt;dim_products&lt;/font&gt;" style="rounded=0;whiteSpace=wrap;html=1;fontSize=16;fillColor=light-dark(#8C8C8C,#C0A700);strokeColor=none;fontColor=#000000;" parent="1" vertex="1">
          <mxGeometry x="1140" y="424.5" width="230" height="40" as="geometry" />
        </mxCell>
        <mxCell id="sSWAKVsidCn2CHOvdKgf-24" value="" style="endArrow=classic;html=1;rounded=0;" parent="1" target="sSWAKVsidCn2CHOvdKgf-10" edge="1">
          <mxGeometry width="50" height="50" relative="1" as="geometry">
            <mxPoint x="330" y="240" as="sourcePoint" />
            <mxPoint x="400" y="189" as="targetPoint" />
          </mxGeometry>
        </mxCell>
        <mxCell id="sSWAKVsidCn2CHOvdKgf-25" value="" style="endArrow=classic;html=1;rounded=0;" parent="1" edge="1">
          <mxGeometry width="50" height="50" relative="1" as="geometry">
            <mxPoint x="720" y="179" as="sourcePoint" />
            <mxPoint x="815" y="178.5" as="targetPoint" />
          </mxGeometry>
        </mxCell>
        <mxCell id="sSWAKVsidCn2CHOvdKgf-26" value="" style="endArrow=classic;html=1;rounded=0;" parent="1" edge="1">
          <mxGeometry width="50" height="50" relative="1" as="geometry">
            <mxPoint x="715" y="240" as="sourcePoint" />
            <mxPoint x="810" y="239.5" as="targetPoint" />
          </mxGeometry>
        </mxCell>
        <mxCell id="sSWAKVsidCn2CHOvdKgf-27" value="" style="endArrow=classic;html=1;rounded=0;" parent="1" edge="1">
          <mxGeometry width="50" height="50" relative="1" as="geometry">
            <mxPoint x="715" y="299.5" as="sourcePoint" />
            <mxPoint x="810" y="299" as="targetPoint" />
          </mxGeometry>
        </mxCell>
        <mxCell id="sSWAKVsidCn2CHOvdKgf-28" value="" style="endArrow=classic;html=1;rounded=0;" parent="1" edge="1">
          <mxGeometry width="50" height="50" relative="1" as="geometry">
            <mxPoint x="715" y="384" as="sourcePoint" />
            <mxPoint x="810" y="383.5" as="targetPoint" />
          </mxGeometry>
        </mxCell>
        <mxCell id="sSWAKVsidCn2CHOvdKgf-29" value="" style="endArrow=classic;html=1;rounded=0;" parent="1" edge="1">
          <mxGeometry width="50" height="50" relative="1" as="geometry">
            <mxPoint x="715" y="444" as="sourcePoint" />
            <mxPoint x="810" y="443.5" as="targetPoint" />
          </mxGeometry>
        </mxCell>
        <mxCell id="sSWAKVsidCn2CHOvdKgf-30" value="" style="endArrow=classic;html=1;rounded=0;" parent="1" edge="1">
          <mxGeometry width="50" height="50" relative="1" as="geometry">
            <mxPoint x="715" y="504.5" as="sourcePoint" />
            <mxPoint x="810" y="504" as="targetPoint" />
          </mxGeometry>
        </mxCell>
        <mxCell id="sSWAKVsidCn2CHOvdKgf-31" value="" style="endArrow=classic;html=1;rounded=0;exitX=1;exitY=0.5;exitDx=0;exitDy=0;" parent="1" source="sSWAKVsidCn2CHOvdKgf-15" edge="1">
          <mxGeometry width="50" height="50" relative="1" as="geometry">
            <mxPoint x="1045" y="199.5" as="sourcePoint" />
            <mxPoint x="1140" y="199" as="targetPoint" />
          </mxGeometry>
        </mxCell>
        <mxCell id="sSWAKVsidCn2CHOvdKgf-32" value="" style="endArrow=classic;html=1;rounded=0;entryX=0;entryY=0;entryDx=0;entryDy=0;" parent="1" target="sSWAKVsidCn2CHOvdKgf-22" edge="1">
          <mxGeometry width="50" height="50" relative="1" as="geometry">
            <mxPoint x="1040" y="248.5" as="sourcePoint" />
            <mxPoint x="1135" y="248" as="targetPoint" />
          </mxGeometry>
        </mxCell>
        <mxCell id="sSWAKVsidCn2CHOvdKgf-33" value="" style="endArrow=classic;html=1;rounded=0;entryX=0;entryY=0;entryDx=0;entryDy=0;" parent="1" target="sSWAKVsidCn2CHOvdKgf-23" edge="1">
          <mxGeometry width="50" height="50" relative="1" as="geometry">
            <mxPoint x="1040" y="307.5" as="sourcePoint" />
            <mxPoint x="1135" y="307" as="targetPoint" />
          </mxGeometry>
        </mxCell>
        <mxCell id="sSWAKVsidCn2CHOvdKgf-34" value="" style="endArrow=classic;html=1;rounded=0;entryX=0;entryY=0.5;entryDx=0;entryDy=0;" parent="1" target="sSWAKVsidCn2CHOvdKgf-22" edge="1">
          <mxGeometry width="50" height="50" relative="1" as="geometry">
            <mxPoint x="1040" y="383.5" as="sourcePoint" />
            <mxPoint x="1135" y="383" as="targetPoint" />
          </mxGeometry>
        </mxCell>
        <mxCell id="sSWAKVsidCn2CHOvdKgf-35" value="" style="endArrow=classic;html=1;rounded=0;entryX=0;entryY=1;entryDx=0;entryDy=0;" parent="1" target="sSWAKVsidCn2CHOvdKgf-22" edge="1">
          <mxGeometry width="50" height="50" relative="1" as="geometry">
            <mxPoint x="1040" y="444" as="sourcePoint" />
            <mxPoint x="1135" y="443.5" as="targetPoint" />
          </mxGeometry>
        </mxCell>
        <mxCell id="sSWAKVsidCn2CHOvdKgf-36" value="" style="endArrow=classic;html=1;rounded=0;entryX=0;entryY=1;entryDx=0;entryDy=0;" parent="1" target="sSWAKVsidCn2CHOvdKgf-23" edge="1">
          <mxGeometry width="50" height="50" relative="1" as="geometry">
            <mxPoint x="1040" y="504.5" as="sourcePoint" />
            <mxPoint x="1135" y="504" as="targetPoint" />
          </mxGeometry>
        </mxCell>
        <mxCell id="sSWAKVsidCn2CHOvdKgf-37" value="" style="endArrow=classic;html=1;rounded=0;" parent="1" edge="1">
          <mxGeometry width="50" height="50" relative="1" as="geometry">
            <mxPoint x="330" y="443.5" as="sourcePoint" />
            <mxPoint x="495" y="443.5" as="targetPoint" />
          </mxGeometry>
        </mxCell>
        <mxCell id="sSWAKVsidCn2CHOvdKgf-38" value="" style="endArrow=none;html=1;rounded=0;" parent="1" edge="1">
          <mxGeometry width="50" height="50" relative="1" as="geometry">
            <mxPoint x="411" y="298" as="sourcePoint" />
            <mxPoint x="410" y="180" as="targetPoint" />
          </mxGeometry>
        </mxCell>
        <mxCell id="sSWAKVsidCn2CHOvdKgf-39" value="" style="endArrow=none;html=1;rounded=0;" parent="1" edge="1">
          <mxGeometry width="50" height="50" relative="1" as="geometry">
            <mxPoint x="411" y="502.5" as="sourcePoint" />
            <mxPoint x="410" y="386.5" as="targetPoint" />
          </mxGeometry>
        </mxCell>
        <mxCell id="sSWAKVsidCn2CHOvdKgf-40" value="" style="endArrow=classic;html=1;rounded=0;" parent="1" edge="1">
          <mxGeometry width="50" height="50" relative="1" as="geometry">
            <mxPoint x="410" y="180.5" as="sourcePoint" />
            <mxPoint x="495" y="180.5" as="targetPoint" />
          </mxGeometry>
        </mxCell>
        <mxCell id="sSWAKVsidCn2CHOvdKgf-41" value="" style="endArrow=classic;html=1;rounded=0;" parent="1" edge="1">
          <mxGeometry width="50" height="50" relative="1" as="geometry">
            <mxPoint x="410" y="298" as="sourcePoint" />
            <mxPoint x="495" y="298" as="targetPoint" />
          </mxGeometry>
        </mxCell>
        <mxCell id="sSWAKVsidCn2CHOvdKgf-42" value="" style="endArrow=classic;html=1;rounded=0;" parent="1" edge="1">
          <mxGeometry width="50" height="50" relative="1" as="geometry">
            <mxPoint x="410" y="387" as="sourcePoint" />
            <mxPoint x="495" y="387" as="targetPoint" />
          </mxGeometry>
        </mxCell>
        <mxCell id="sSWAKVsidCn2CHOvdKgf-43" value="" style="endArrow=classic;html=1;rounded=0;" parent="1" edge="1">
          <mxGeometry width="50" height="50" relative="1" as="geometry">
            <mxPoint x="410" y="502.39" as="sourcePoint" />
            <mxPoint x="495" y="502.39" as="targetPoint" />
          </mxGeometry>
        </mxCell>
      </root>
    </mxGraphModel>
  </diagram>
  <diagram id="bLG2CRqMcIV43Rt5eJYz" name="Integration Model">
    <mxGraphModel dx="1584" dy="934" grid="1" gridSize="10" guides="1" tooltips="1" connect="1" arrows="1" fold="1" page="1" pageScale="1" pageWidth="850" pageHeight="1100" math="0" shadow="0">
      <root>
        <mxCell id="0" />
        <mxCell id="1" parent="0" />
        <mxCell id="mzLAX2b2YSgHgTfkxxol-70" value="" style="rounded=1;whiteSpace=wrap;html=1;fillColor=none;dashed=1;fontColor=#ffffff;strokeColor=#432D57;strokeWidth=3;" parent="1" vertex="1">
          <mxGeometry x="960" y="365" width="575" height="600" as="geometry" />
        </mxCell>
        <mxCell id="mzLAX2b2YSgHgTfkxxol-68" value="" style="rounded=1;whiteSpace=wrap;html=1;fillColor=none;dashed=1;strokeWidth=3;strokeColor=light-dark(#001DBC,#6B9BFF);" parent="1" vertex="1">
          <mxGeometry x="240" y="370" width="660" height="590" as="geometry" />
        </mxCell>
        <mxCell id="mzLAX2b2YSgHgTfkxxol-37" value="&lt;font style=&quot;color: rgb(255, 255, 255);&quot;&gt;crm_cust_info&lt;/font&gt;" style="swimlane;fontStyle=0;childLayout=stackLayout;horizontal=1;startSize=30;horizontalStack=0;resizeParent=1;resizeParentMax=0;resizeLast=0;collapsible=1;marginBottom=0;whiteSpace=wrap;html=1;rounded=1;fillColor=#1ba1e2;strokeColor=#006EAF;fontColor=#ffffff;fontSize=20;" parent="1" vertex="1">
          <mxGeometry x="630" y="480" width="180" height="130" as="geometry" />
        </mxCell>
        <mxCell id="mzLAX2b2YSgHgTfkxxol-38" value="&lt;font style=&quot;font-size: 18px;&quot;&gt;&amp;nbsp; &amp;nbsp; &amp;nbsp; &amp;nbsp; &amp;nbsp; &amp;nbsp;cst_id&lt;/font&gt;" style="text;strokeColor=none;fillColor=none;align=left;verticalAlign=middle;spacingLeft=4;spacingRight=4;overflow=hidden;points=[[0,0.5],[1,0.5]];portConstraint=eastwest;rotatable=0;whiteSpace=wrap;html=1;" parent="mzLAX2b2YSgHgTfkxxol-37" vertex="1">
          <mxGeometry y="30" width="180" height="30" as="geometry" />
        </mxCell>
        <mxCell id="mzLAX2b2YSgHgTfkxxol-63" value="&lt;font style=&quot;font-size: 18px;&quot;&gt;&amp;nbsp; &amp;nbsp; &amp;nbsp; &amp;nbsp; &amp;nbsp; cst_key&lt;/font&gt;" style="text;strokeColor=none;fillColor=none;align=left;verticalAlign=middle;spacingLeft=4;spacingRight=4;overflow=hidden;points=[[0,0.5],[1,0.5]];portConstraint=eastwest;rotatable=0;whiteSpace=wrap;html=1;" parent="mzLAX2b2YSgHgTfkxxol-37" vertex="1">
          <mxGeometry y="60" width="180" height="30" as="geometry" />
        </mxCell>
        <mxCell id="sD45hm8d0lrx41feWkAt-4" value="&lt;font style=&quot;font-size: 15px;&quot;&gt;Customer&lt;/font&gt;" style="whiteSpace=wrap;html=1;fillColor=#a20025;fontColor=#ffffff;strokeColor=#6F0000;" parent="mzLAX2b2YSgHgTfkxxol-37" vertex="1">
          <mxGeometry y="90" width="180" height="40" as="geometry" />
        </mxCell>
        <mxCell id="mzLAX2b2YSgHgTfkxxol-42" value="Customer information" style="text;html=1;align=center;verticalAlign=middle;resizable=0;points=[];autosize=1;strokeColor=none;fillColor=none;" parent="1" vertex="1">
          <mxGeometry x="650" y="450" width="140" height="30" as="geometry" />
        </mxCell>
        <mxCell id="mzLAX2b2YSgHgTfkxxol-43" value="&lt;font style=&quot;color: rgb(255, 255, 255);&quot;&gt;crm_prd_info&lt;/font&gt;" style="swimlane;fontStyle=0;childLayout=stackLayout;horizontal=1;startSize=30;horizontalStack=0;resizeParent=1;resizeParentMax=0;resizeLast=0;collapsible=1;marginBottom=0;whiteSpace=wrap;html=1;rounded=1;fillColor=#1ba1e2;strokeColor=#006EAF;fontColor=#ffffff;fontSize=20;" parent="1" vertex="1">
          <mxGeometry x="630" y="720" width="180" height="110" as="geometry" />
        </mxCell>
        <mxCell id="mzLAX2b2YSgHgTfkxxol-44" value="&lt;font style=&quot;font-size: 18px;&quot;&gt;&amp;nbsp; &amp;nbsp; &amp;nbsp; &amp;nbsp; &amp;nbsp; &amp;nbsp; prd_key&lt;/font&gt;" style="text;strokeColor=none;fillColor=none;align=left;verticalAlign=middle;spacingLeft=4;spacingRight=4;overflow=hidden;points=[[0,0.5],[1,0.5]];portConstraint=eastwest;rotatable=0;whiteSpace=wrap;html=1;" parent="mzLAX2b2YSgHgTfkxxol-43" vertex="1">
          <mxGeometry y="30" width="180" height="40" as="geometry" />
        </mxCell>
        <mxCell id="sD45hm8d0lrx41feWkAt-3" value="&lt;font style=&quot;font-size: 15px;&quot;&gt;Product&lt;/font&gt;" style="whiteSpace=wrap;html=1;fillColor=#008a00;fontColor=#ffffff;strokeColor=#005700;" parent="mzLAX2b2YSgHgTfkxxol-43" vertex="1">
          <mxGeometry y="70" width="180" height="40" as="geometry" />
        </mxCell>
        <mxCell id="mzLAX2b2YSgHgTfkxxol-45" value="Current &amp;amp; History Product Information" style="text;html=1;align=center;verticalAlign=middle;resizable=0;points=[];autosize=1;strokeColor=none;fillColor=none;" parent="1" vertex="1">
          <mxGeometry x="610" y="690" width="220" height="30" as="geometry" />
        </mxCell>
        <mxCell id="mzLAX2b2YSgHgTfkxxol-46" value="&lt;font style=&quot;color: rgb(255, 255, 255);&quot;&gt;crm_sales_details&lt;/font&gt;" style="swimlane;fontStyle=0;childLayout=stackLayout;horizontal=1;startSize=30;horizontalStack=0;resizeParent=1;resizeParentMax=0;resizeLast=0;collapsible=1;marginBottom=0;whiteSpace=wrap;html=1;rounded=1;fillColor=#1ba1e2;strokeColor=#006EAF;fontColor=#ffffff;fontSize=20;" parent="1" vertex="1">
          <mxGeometry x="290" y="605" width="200" height="150" as="geometry" />
        </mxCell>
        <mxCell id="mzLAX2b2YSgHgTfkxxol-49" value="&lt;font style=&quot;font-size: 18px;&quot;&gt;&amp;nbsp; &amp;nbsp; &amp;nbsp; &amp;nbsp; &amp;nbsp; &amp;nbsp; &amp;nbsp;cst_id&lt;/font&gt;" style="text;strokeColor=none;fillColor=none;align=left;verticalAlign=middle;spacingLeft=4;spacingRight=4;overflow=hidden;points=[[0,0.5],[1,0.5]];portConstraint=eastwest;rotatable=0;whiteSpace=wrap;html=1;" parent="mzLAX2b2YSgHgTfkxxol-46" vertex="1">
          <mxGeometry y="30" width="200" height="40" as="geometry" />
        </mxCell>
        <mxCell id="mzLAX2b2YSgHgTfkxxol-47" value="&lt;font style=&quot;font-size: 18px;&quot;&gt;&amp;nbsp; &amp;nbsp; &amp;nbsp; &amp;nbsp; &amp;nbsp; &amp;nbsp; prd_key&lt;/font&gt;" style="text;strokeColor=none;fillColor=none;align=left;verticalAlign=middle;spacingLeft=4;spacingRight=4;overflow=hidden;points=[[0,0.5],[1,0.5]];portConstraint=eastwest;rotatable=0;whiteSpace=wrap;html=1;" parent="mzLAX2b2YSgHgTfkxxol-46" vertex="1">
          <mxGeometry y="70" width="200" height="40" as="geometry" />
        </mxCell>
        <mxCell id="sD45hm8d0lrx41feWkAt-7" value="&lt;font style=&quot;color: rgb(255, 255, 255); font-size: 20px;&quot;&gt;SALES&lt;/font&gt;" style="whiteSpace=wrap;html=1;fillColor=#fa6800;strokeColor=#C73500;fontColor=#000000;" parent="mzLAX2b2YSgHgTfkxxol-46" vertex="1">
          <mxGeometry y="110" width="200" height="40" as="geometry" />
        </mxCell>
        <mxCell id="mzLAX2b2YSgHgTfkxxol-48" value="Transactional records of sales &amp;amp; orders" style="text;html=1;align=center;verticalAlign=middle;resizable=0;points=[];autosize=1;strokeColor=none;fillColor=none;" parent="1" vertex="1">
          <mxGeometry x="280" y="575" width="230" height="30" as="geometry" />
        </mxCell>
        <mxCell id="mzLAX2b2YSgHgTfkxxol-50" style="edgeStyle=orthogonalEdgeStyle;rounded=0;orthogonalLoop=1;jettySize=auto;html=1;exitX=1;exitY=0.5;exitDx=0;exitDy=0;" parent="1" source="mzLAX2b2YSgHgTfkxxol-49" target="mzLAX2b2YSgHgTfkxxol-38" edge="1">
          <mxGeometry relative="1" as="geometry" />
        </mxCell>
        <mxCell id="mzLAX2b2YSgHgTfkxxol-52" style="edgeStyle=orthogonalEdgeStyle;rounded=0;orthogonalLoop=1;jettySize=auto;html=1;exitX=1;exitY=0.5;exitDx=0;exitDy=0;entryX=-0.022;entryY=0.633;entryDx=0;entryDy=0;entryPerimeter=0;" parent="1" source="mzLAX2b2YSgHgTfkxxol-47" target="mzLAX2b2YSgHgTfkxxol-44" edge="1">
          <mxGeometry relative="1" as="geometry" />
        </mxCell>
        <mxCell id="mzLAX2b2YSgHgTfkxxol-53" value="&lt;font style=&quot;color: rgb(255, 255, 255);&quot;&gt;erp_cust_az_12&lt;/font&gt;" style="swimlane;fontStyle=0;childLayout=stackLayout;horizontal=1;startSize=30;horizontalStack=0;resizeParent=1;resizeParentMax=0;resizeLast=0;collapsible=1;marginBottom=0;whiteSpace=wrap;html=1;rounded=1;fillColor=#76608a;strokeColor=#432D57;fontColor=#ffffff;fontSize=20;" parent="1" vertex="1">
          <mxGeometry x="1190" y="437.5" width="180" height="100" as="geometry" />
        </mxCell>
        <mxCell id="mzLAX2b2YSgHgTfkxxol-54" value="&lt;font style=&quot;font-size: 18px;&quot;&gt;&amp;nbsp; &amp;nbsp; &amp;nbsp; &amp;nbsp; &amp;nbsp; &amp;nbsp; cst_id&lt;/font&gt;" style="text;strokeColor=none;fillColor=none;align=left;verticalAlign=middle;spacingLeft=4;spacingRight=4;overflow=hidden;points=[[0,0.5],[1,0.5]];portConstraint=eastwest;rotatable=0;whiteSpace=wrap;html=1;" parent="mzLAX2b2YSgHgTfkxxol-53" vertex="1">
          <mxGeometry y="30" width="180" height="40" as="geometry" />
        </mxCell>
        <mxCell id="sD45hm8d0lrx41feWkAt-6" value="&lt;font style=&quot;font-size: 15px;&quot;&gt;Customer&lt;/font&gt;" style="whiteSpace=wrap;html=1;fillColor=#a20025;fontColor=#ffffff;strokeColor=#6F0000;" parent="mzLAX2b2YSgHgTfkxxol-53" vertex="1">
          <mxGeometry y="70" width="180" height="30" as="geometry" />
        </mxCell>
        <mxCell id="mzLAX2b2YSgHgTfkxxol-55" value="Extra customer information (birthdate)" style="text;html=1;align=center;verticalAlign=middle;resizable=0;points=[];autosize=1;strokeColor=none;fillColor=none;" parent="1" vertex="1">
          <mxGeometry x="1170" y="407.5" width="220" height="30" as="geometry" />
        </mxCell>
        <mxCell id="mzLAX2b2YSgHgTfkxxol-57" value="&lt;font style=&quot;color: rgb(255, 255, 255);&quot;&gt;erp_loc_a101&lt;/font&gt;" style="swimlane;fontStyle=0;childLayout=stackLayout;horizontal=1;startSize=30;horizontalStack=0;resizeParent=1;resizeParentMax=0;resizeLast=0;collapsible=1;marginBottom=0;whiteSpace=wrap;html=1;rounded=1;fillColor=#76608a;strokeColor=#432D57;fontColor=#ffffff;fontSize=20;" parent="1" vertex="1">
          <mxGeometry x="1190" y="612.5" width="180" height="100" as="geometry" />
        </mxCell>
        <mxCell id="mzLAX2b2YSgHgTfkxxol-58" value="&lt;font style=&quot;font-size: 18px;&quot;&gt;&amp;nbsp; &amp;nbsp; &amp;nbsp; &amp;nbsp; &amp;nbsp; &amp;nbsp; &amp;nbsp; cid&lt;/font&gt;" style="text;strokeColor=none;fillColor=none;align=left;verticalAlign=middle;spacingLeft=4;spacingRight=4;overflow=hidden;points=[[0,0.5],[1,0.5]];portConstraint=eastwest;rotatable=0;whiteSpace=wrap;html=1;" parent="mzLAX2b2YSgHgTfkxxol-57" vertex="1">
          <mxGeometry y="30" width="180" height="40" as="geometry" />
        </mxCell>
        <mxCell id="sD45hm8d0lrx41feWkAt-5" value="&lt;font style=&quot;font-size: 15px;&quot;&gt;Customer&lt;/font&gt;" style="whiteSpace=wrap;html=1;fillColor=#a20025;fontColor=#ffffff;strokeColor=#6F0000;" parent="mzLAX2b2YSgHgTfkxxol-57" vertex="1">
          <mxGeometry y="70" width="180" height="30" as="geometry" />
        </mxCell>
        <mxCell id="mzLAX2b2YSgHgTfkxxol-59" value="Location of Customers (Country)" style="text;html=1;align=center;verticalAlign=middle;resizable=0;points=[];autosize=1;strokeColor=none;fillColor=none;" parent="1" vertex="1">
          <mxGeometry x="1180" y="582.5" width="200" height="30" as="geometry" />
        </mxCell>
        <mxCell id="mzLAX2b2YSgHgTfkxxol-60" value="&lt;font style=&quot;color: rgb(255, 255, 255);&quot;&gt;erp_px_cat_g1v2&lt;/font&gt;" style="swimlane;fontStyle=0;childLayout=stackLayout;horizontal=1;startSize=30;horizontalStack=0;resizeParent=1;resizeParentMax=0;resizeLast=0;collapsible=1;marginBottom=0;whiteSpace=wrap;html=1;rounded=1;fillColor=#76608a;strokeColor=#432D57;fontColor=#ffffff;fontSize=20;" parent="1" vertex="1">
          <mxGeometry x="1200" y="812.5" width="180" height="100" as="geometry" />
        </mxCell>
        <mxCell id="mzLAX2b2YSgHgTfkxxol-61" value="&lt;font style=&quot;font-size: 18px;&quot;&gt;&amp;nbsp; &amp;nbsp; &amp;nbsp; &amp;nbsp; &amp;nbsp; &amp;nbsp; &amp;nbsp;id&lt;/font&gt;" style="text;strokeColor=none;fillColor=none;align=left;verticalAlign=middle;spacingLeft=4;spacingRight=4;overflow=hidden;points=[[0,0.5],[1,0.5]];portConstraint=eastwest;rotatable=0;whiteSpace=wrap;html=1;" parent="mzLAX2b2YSgHgTfkxxol-60" vertex="1">
          <mxGeometry y="30" width="180" height="40" as="geometry" />
        </mxCell>
        <mxCell id="sD45hm8d0lrx41feWkAt-2" value="&lt;font style=&quot;font-size: 15px;&quot;&gt;Product&lt;/font&gt;" style="whiteSpace=wrap;html=1;fillColor=#008a00;fontColor=#ffffff;strokeColor=#005700;" parent="mzLAX2b2YSgHgTfkxxol-60" vertex="1">
          <mxGeometry y="70" width="180" height="30" as="geometry" />
        </mxCell>
        <mxCell id="mzLAX2b2YSgHgTfkxxol-62" value="Product Categories" style="text;html=1;align=center;verticalAlign=middle;resizable=0;points=[];autosize=1;strokeColor=none;fillColor=none;" parent="1" vertex="1">
          <mxGeometry x="1225" y="782.5" width="130" height="30" as="geometry" />
        </mxCell>
        <mxCell id="mzLAX2b2YSgHgTfkxxol-65" style="edgeStyle=orthogonalEdgeStyle;rounded=0;orthogonalLoop=1;jettySize=auto;html=1;exitX=0;exitY=0.5;exitDx=0;exitDy=0;entryX=1;entryY=0.5;entryDx=0;entryDy=0;" parent="1" source="mzLAX2b2YSgHgTfkxxol-54" target="mzLAX2b2YSgHgTfkxxol-63" edge="1">
          <mxGeometry relative="1" as="geometry" />
        </mxCell>
        <mxCell id="mzLAX2b2YSgHgTfkxxol-67" style="edgeStyle=orthogonalEdgeStyle;rounded=0;orthogonalLoop=1;jettySize=auto;html=1;exitX=0;exitY=0.5;exitDx=0;exitDy=0;entryX=1;entryY=0.5;entryDx=0;entryDy=0;" parent="1" source="mzLAX2b2YSgHgTfkxxol-61" target="mzLAX2b2YSgHgTfkxxol-44" edge="1">
          <mxGeometry relative="1" as="geometry" />
        </mxCell>
        <mxCell id="mzLAX2b2YSgHgTfkxxol-69" value="&lt;font style=&quot;font-size: 33px;&quot;&gt;&amp;nbsp; &amp;nbsp; &amp;nbsp; CRM&amp;nbsp; &amp;nbsp; &amp;nbsp;&amp;nbsp;&lt;/font&gt;" style="text;html=1;align=center;verticalAlign=middle;resizable=0;points=[];autosize=1;strokeColor=#006EAF;fillColor=#1ba1e2;fontColor=#ffffff;" parent="1" vertex="1">
          <mxGeometry x="458" y="341" width="210" height="50" as="geometry" />
        </mxCell>
        <mxCell id="mzLAX2b2YSgHgTfkxxol-71" value="&lt;font style=&quot;font-size: 33px;&quot;&gt;&amp;nbsp; &amp;nbsp; &amp;nbsp; ERP&amp;nbsp; &amp;nbsp; &amp;nbsp;&amp;nbsp;&lt;/font&gt;" style="text;html=1;align=center;verticalAlign=middle;resizable=0;points=[];autosize=1;fillColor=#76608a;strokeColor=#432D57;fontColor=#ffffff;" parent="1" vertex="1">
          <mxGeometry x="1170" y="340" width="200" height="50" as="geometry" />
        </mxCell>
        <mxCell id="mzLAX2b2YSgHgTfkxxol-73" style="edgeStyle=orthogonalEdgeStyle;rounded=0;orthogonalLoop=1;jettySize=auto;html=1;exitX=0;exitY=0.5;exitDx=0;exitDy=0;entryX=0.994;entryY=0.675;entryDx=0;entryDy=0;entryPerimeter=0;" parent="1" source="mzLAX2b2YSgHgTfkxxol-58" target="mzLAX2b2YSgHgTfkxxol-63" edge="1">
          <mxGeometry relative="1" as="geometry">
            <mxPoint x="1000" y="640" as="targetPoint" />
          </mxGeometry>
        </mxCell>
        <mxCell id="y0aQViH_cVnid8IU1EPt-1" value="&lt;font face=&quot;Tahoma&quot; style=&quot;&quot;&gt;&lt;b style=&quot;&quot;&gt;&lt;span style=&quot;font-size: 50px;&quot;&gt;DATA INTEGRATION MODEL &lt;/span&gt;&lt;font style=&quot;font-size: 25px;&quot;&gt;(How the tables are related to one another)&lt;/font&gt;&lt;/b&gt;&lt;/font&gt;" style="rounded=0;whiteSpace=wrap;html=1;fillColor=none;strokeColor=none;" vertex="1" parent="1">
          <mxGeometry x="220" y="204" width="1330" height="80" as="geometry" />
        </mxCell>
      </root>
    </mxGraphModel>
  </diagram>
  <diagram id="BF9qWRjyOyRIOknb-6EE" name="Data Mart (Star Schema)">
    <mxGraphModel dx="1426" dy="841" grid="1" gridSize="10" guides="1" tooltips="1" connect="1" arrows="1" fold="1" page="1" pageScale="1" pageWidth="850" pageHeight="1100" math="0" shadow="0">
      <root>
        <mxCell id="0" />
        <mxCell id="1" parent="0" />
        <mxCell id="-OWckYxyjtKHmRNjJvkT-24" value="&lt;font style=&quot;color: rgb(0, 0, 0);&quot;&gt;gold.dim_customers&lt;/font&gt;" style="shape=table;startSize=30;container=1;collapsible=1;childLayout=tableLayout;fixedRows=1;rowLines=0;fontStyle=1;align=center;resizeLast=1;html=1;strokeColor=#FFFFFF;fillColor=#FFD966;rounded=1;" parent="1" vertex="1">
          <mxGeometry x="430" y="490" width="190" height="330" as="geometry" />
        </mxCell>
        <mxCell id="-OWckYxyjtKHmRNjJvkT-25" value="" style="shape=tableRow;horizontal=0;startSize=0;swimlaneHead=0;swimlaneBody=0;fillColor=none;collapsible=0;dropTarget=0;points=[[0,0.5],[1,0.5]];portConstraint=eastwest;top=0;left=0;right=0;bottom=1;" parent="-OWckYxyjtKHmRNjJvkT-24" vertex="1">
          <mxGeometry y="30" width="190" height="30" as="geometry" />
        </mxCell>
        <mxCell id="-OWckYxyjtKHmRNjJvkT-26" value="PK" style="shape=partialRectangle;connectable=0;fillColor=none;top=0;left=0;bottom=0;right=0;fontStyle=1;overflow=hidden;whiteSpace=wrap;html=1;" parent="-OWckYxyjtKHmRNjJvkT-25" vertex="1">
          <mxGeometry width="30" height="30" as="geometry">
            <mxRectangle width="30" height="30" as="alternateBounds" />
          </mxGeometry>
        </mxCell>
        <mxCell id="-OWckYxyjtKHmRNjJvkT-27" value="customer_key" style="shape=partialRectangle;connectable=0;fillColor=none;top=0;left=0;bottom=0;right=0;align=left;spacingLeft=6;fontStyle=5;overflow=hidden;whiteSpace=wrap;html=1;" parent="-OWckYxyjtKHmRNjJvkT-25" vertex="1">
          <mxGeometry x="30" width="160" height="30" as="geometry">
            <mxRectangle width="160" height="30" as="alternateBounds" />
          </mxGeometry>
        </mxCell>
        <mxCell id="-OWckYxyjtKHmRNjJvkT-28" value="" style="shape=tableRow;horizontal=0;startSize=0;swimlaneHead=0;swimlaneBody=0;fillColor=none;collapsible=0;dropTarget=0;points=[[0,0.5],[1,0.5]];portConstraint=eastwest;top=0;left=0;right=0;bottom=0;" parent="-OWckYxyjtKHmRNjJvkT-24" vertex="1">
          <mxGeometry y="60" width="190" height="30" as="geometry" />
        </mxCell>
        <mxCell id="-OWckYxyjtKHmRNjJvkT-29" value="" style="shape=partialRectangle;connectable=0;fillColor=none;top=0;left=0;bottom=0;right=0;editable=1;overflow=hidden;whiteSpace=wrap;html=1;" parent="-OWckYxyjtKHmRNjJvkT-28" vertex="1">
          <mxGeometry width="30" height="30" as="geometry">
            <mxRectangle width="30" height="30" as="alternateBounds" />
          </mxGeometry>
        </mxCell>
        <mxCell id="-OWckYxyjtKHmRNjJvkT-30" value="customer_id" style="shape=partialRectangle;connectable=0;fillColor=none;top=0;left=0;bottom=0;right=0;align=left;spacingLeft=6;overflow=hidden;whiteSpace=wrap;html=1;" parent="-OWckYxyjtKHmRNjJvkT-28" vertex="1">
          <mxGeometry x="30" width="160" height="30" as="geometry">
            <mxRectangle width="160" height="30" as="alternateBounds" />
          </mxGeometry>
        </mxCell>
        <mxCell id="-OWckYxyjtKHmRNjJvkT-31" value="" style="shape=tableRow;horizontal=0;startSize=0;swimlaneHead=0;swimlaneBody=0;fillColor=none;collapsible=0;dropTarget=0;points=[[0,0.5],[1,0.5]];portConstraint=eastwest;top=0;left=0;right=0;bottom=0;" parent="-OWckYxyjtKHmRNjJvkT-24" vertex="1">
          <mxGeometry y="90" width="190" height="30" as="geometry" />
        </mxCell>
        <mxCell id="-OWckYxyjtKHmRNjJvkT-32" value="" style="shape=partialRectangle;connectable=0;fillColor=none;top=0;left=0;bottom=0;right=0;editable=1;overflow=hidden;whiteSpace=wrap;html=1;" parent="-OWckYxyjtKHmRNjJvkT-31" vertex="1">
          <mxGeometry width="30" height="30" as="geometry">
            <mxRectangle width="30" height="30" as="alternateBounds" />
          </mxGeometry>
        </mxCell>
        <mxCell id="-OWckYxyjtKHmRNjJvkT-33" value="customer_number" style="shape=partialRectangle;connectable=0;fillColor=none;top=0;left=0;bottom=0;right=0;align=left;spacingLeft=6;overflow=hidden;whiteSpace=wrap;html=1;" parent="-OWckYxyjtKHmRNjJvkT-31" vertex="1">
          <mxGeometry x="30" width="160" height="30" as="geometry">
            <mxRectangle width="160" height="30" as="alternateBounds" />
          </mxGeometry>
        </mxCell>
        <mxCell id="-OWckYxyjtKHmRNjJvkT-34" value="" style="shape=tableRow;horizontal=0;startSize=0;swimlaneHead=0;swimlaneBody=0;fillColor=none;collapsible=0;dropTarget=0;points=[[0,0.5],[1,0.5]];portConstraint=eastwest;top=0;left=0;right=0;bottom=0;" parent="-OWckYxyjtKHmRNjJvkT-24" vertex="1">
          <mxGeometry y="120" width="190" height="30" as="geometry" />
        </mxCell>
        <mxCell id="-OWckYxyjtKHmRNjJvkT-35" value="" style="shape=partialRectangle;connectable=0;fillColor=none;top=0;left=0;bottom=0;right=0;editable=1;overflow=hidden;whiteSpace=wrap;html=1;" parent="-OWckYxyjtKHmRNjJvkT-34" vertex="1">
          <mxGeometry width="30" height="30" as="geometry">
            <mxRectangle width="30" height="30" as="alternateBounds" />
          </mxGeometry>
        </mxCell>
        <mxCell id="-OWckYxyjtKHmRNjJvkT-36" value="first_name" style="shape=partialRectangle;connectable=0;fillColor=none;top=0;left=0;bottom=0;right=0;align=left;spacingLeft=6;overflow=hidden;whiteSpace=wrap;html=1;" parent="-OWckYxyjtKHmRNjJvkT-34" vertex="1">
          <mxGeometry x="30" width="160" height="30" as="geometry">
            <mxRectangle width="160" height="30" as="alternateBounds" />
          </mxGeometry>
        </mxCell>
        <mxCell id="-OWckYxyjtKHmRNjJvkT-40" style="shape=tableRow;horizontal=0;startSize=0;swimlaneHead=0;swimlaneBody=0;fillColor=none;collapsible=0;dropTarget=0;points=[[0,0.5],[1,0.5]];portConstraint=eastwest;top=0;left=0;right=0;bottom=0;" parent="-OWckYxyjtKHmRNjJvkT-24" vertex="1">
          <mxGeometry y="150" width="190" height="30" as="geometry" />
        </mxCell>
        <mxCell id="-OWckYxyjtKHmRNjJvkT-41" style="shape=partialRectangle;connectable=0;fillColor=none;top=0;left=0;bottom=0;right=0;editable=1;overflow=hidden;whiteSpace=wrap;html=1;" parent="-OWckYxyjtKHmRNjJvkT-40" vertex="1">
          <mxGeometry width="30" height="30" as="geometry">
            <mxRectangle width="30" height="30" as="alternateBounds" />
          </mxGeometry>
        </mxCell>
        <mxCell id="-OWckYxyjtKHmRNjJvkT-42" value="last_name" style="shape=partialRectangle;connectable=0;fillColor=none;top=0;left=0;bottom=0;right=0;align=left;spacingLeft=6;overflow=hidden;whiteSpace=wrap;html=1;" parent="-OWckYxyjtKHmRNjJvkT-40" vertex="1">
          <mxGeometry x="30" width="160" height="30" as="geometry">
            <mxRectangle width="160" height="30" as="alternateBounds" />
          </mxGeometry>
        </mxCell>
        <mxCell id="-OWckYxyjtKHmRNjJvkT-43" style="shape=tableRow;horizontal=0;startSize=0;swimlaneHead=0;swimlaneBody=0;fillColor=none;collapsible=0;dropTarget=0;points=[[0,0.5],[1,0.5]];portConstraint=eastwest;top=0;left=0;right=0;bottom=0;" parent="-OWckYxyjtKHmRNjJvkT-24" vertex="1">
          <mxGeometry y="180" width="190" height="30" as="geometry" />
        </mxCell>
        <mxCell id="-OWckYxyjtKHmRNjJvkT-44" style="shape=partialRectangle;connectable=0;fillColor=none;top=0;left=0;bottom=0;right=0;editable=1;overflow=hidden;whiteSpace=wrap;html=1;" parent="-OWckYxyjtKHmRNjJvkT-43" vertex="1">
          <mxGeometry width="30" height="30" as="geometry">
            <mxRectangle width="30" height="30" as="alternateBounds" />
          </mxGeometry>
        </mxCell>
        <mxCell id="-OWckYxyjtKHmRNjJvkT-45" value="country" style="shape=partialRectangle;connectable=0;fillColor=none;top=0;left=0;bottom=0;right=0;align=left;spacingLeft=6;overflow=hidden;whiteSpace=wrap;html=1;" parent="-OWckYxyjtKHmRNjJvkT-43" vertex="1">
          <mxGeometry x="30" width="160" height="30" as="geometry">
            <mxRectangle width="160" height="30" as="alternateBounds" />
          </mxGeometry>
        </mxCell>
        <mxCell id="-OWckYxyjtKHmRNjJvkT-46" style="shape=tableRow;horizontal=0;startSize=0;swimlaneHead=0;swimlaneBody=0;fillColor=none;collapsible=0;dropTarget=0;points=[[0,0.5],[1,0.5]];portConstraint=eastwest;top=0;left=0;right=0;bottom=0;" parent="-OWckYxyjtKHmRNjJvkT-24" vertex="1">
          <mxGeometry y="210" width="190" height="30" as="geometry" />
        </mxCell>
        <mxCell id="-OWckYxyjtKHmRNjJvkT-47" style="shape=partialRectangle;connectable=0;fillColor=none;top=0;left=0;bottom=0;right=0;editable=1;overflow=hidden;whiteSpace=wrap;html=1;" parent="-OWckYxyjtKHmRNjJvkT-46" vertex="1">
          <mxGeometry width="30" height="30" as="geometry">
            <mxRectangle width="30" height="30" as="alternateBounds" />
          </mxGeometry>
        </mxCell>
        <mxCell id="-OWckYxyjtKHmRNjJvkT-48" value="marital_status" style="shape=partialRectangle;connectable=0;fillColor=none;top=0;left=0;bottom=0;right=0;align=left;spacingLeft=6;overflow=hidden;whiteSpace=wrap;html=1;" parent="-OWckYxyjtKHmRNjJvkT-46" vertex="1">
          <mxGeometry x="30" width="160" height="30" as="geometry">
            <mxRectangle width="160" height="30" as="alternateBounds" />
          </mxGeometry>
        </mxCell>
        <mxCell id="-OWckYxyjtKHmRNjJvkT-49" style="shape=tableRow;horizontal=0;startSize=0;swimlaneHead=0;swimlaneBody=0;fillColor=none;collapsible=0;dropTarget=0;points=[[0,0.5],[1,0.5]];portConstraint=eastwest;top=0;left=0;right=0;bottom=0;" parent="-OWckYxyjtKHmRNjJvkT-24" vertex="1">
          <mxGeometry y="240" width="190" height="30" as="geometry" />
        </mxCell>
        <mxCell id="-OWckYxyjtKHmRNjJvkT-50" style="shape=partialRectangle;connectable=0;fillColor=none;top=0;left=0;bottom=0;right=0;editable=1;overflow=hidden;whiteSpace=wrap;html=1;" parent="-OWckYxyjtKHmRNjJvkT-49" vertex="1">
          <mxGeometry width="30" height="30" as="geometry">
            <mxRectangle width="30" height="30" as="alternateBounds" />
          </mxGeometry>
        </mxCell>
        <mxCell id="-OWckYxyjtKHmRNjJvkT-51" value="gender" style="shape=partialRectangle;connectable=0;fillColor=none;top=0;left=0;bottom=0;right=0;align=left;spacingLeft=6;overflow=hidden;whiteSpace=wrap;html=1;" parent="-OWckYxyjtKHmRNjJvkT-49" vertex="1">
          <mxGeometry x="30" width="160" height="30" as="geometry">
            <mxRectangle width="160" height="30" as="alternateBounds" />
          </mxGeometry>
        </mxCell>
        <mxCell id="-OWckYxyjtKHmRNjJvkT-52" style="shape=tableRow;horizontal=0;startSize=0;swimlaneHead=0;swimlaneBody=0;fillColor=none;collapsible=0;dropTarget=0;points=[[0,0.5],[1,0.5]];portConstraint=eastwest;top=0;left=0;right=0;bottom=0;" parent="-OWckYxyjtKHmRNjJvkT-24" vertex="1">
          <mxGeometry y="270" width="190" height="30" as="geometry" />
        </mxCell>
        <mxCell id="-OWckYxyjtKHmRNjJvkT-53" style="shape=partialRectangle;connectable=0;fillColor=none;top=0;left=0;bottom=0;right=0;editable=1;overflow=hidden;whiteSpace=wrap;html=1;" parent="-OWckYxyjtKHmRNjJvkT-52" vertex="1">
          <mxGeometry width="30" height="30" as="geometry">
            <mxRectangle width="30" height="30" as="alternateBounds" />
          </mxGeometry>
        </mxCell>
        <mxCell id="-OWckYxyjtKHmRNjJvkT-54" value="birth_date" style="shape=partialRectangle;connectable=0;fillColor=none;top=0;left=0;bottom=0;right=0;align=left;spacingLeft=6;overflow=hidden;whiteSpace=wrap;html=1;" parent="-OWckYxyjtKHmRNjJvkT-52" vertex="1">
          <mxGeometry x="30" width="160" height="30" as="geometry">
            <mxRectangle width="160" height="30" as="alternateBounds" />
          </mxGeometry>
        </mxCell>
        <mxCell id="-OWckYxyjtKHmRNjJvkT-55" style="shape=tableRow;horizontal=0;startSize=0;swimlaneHead=0;swimlaneBody=0;fillColor=none;collapsible=0;dropTarget=0;points=[[0,0.5],[1,0.5]];portConstraint=eastwest;top=0;left=0;right=0;bottom=0;" parent="-OWckYxyjtKHmRNjJvkT-24" vertex="1">
          <mxGeometry y="300" width="190" height="30" as="geometry" />
        </mxCell>
        <mxCell id="-OWckYxyjtKHmRNjJvkT-56" style="shape=partialRectangle;connectable=0;fillColor=none;top=0;left=0;bottom=0;right=0;editable=1;overflow=hidden;whiteSpace=wrap;html=1;" parent="-OWckYxyjtKHmRNjJvkT-55" vertex="1">
          <mxGeometry width="30" height="30" as="geometry">
            <mxRectangle width="30" height="30" as="alternateBounds" />
          </mxGeometry>
        </mxCell>
        <mxCell id="-OWckYxyjtKHmRNjJvkT-57" value="country" style="shape=partialRectangle;connectable=0;fillColor=none;top=0;left=0;bottom=0;right=0;align=left;spacingLeft=6;overflow=hidden;whiteSpace=wrap;html=1;" parent="-OWckYxyjtKHmRNjJvkT-55" vertex="1">
          <mxGeometry x="30" width="160" height="30" as="geometry">
            <mxRectangle width="160" height="30" as="alternateBounds" />
          </mxGeometry>
        </mxCell>
        <mxCell id="-OWckYxyjtKHmRNjJvkT-58" value="&lt;font style=&quot;color: rgb(0, 0, 0);&quot;&gt;gold.dim_products&lt;/font&gt;" style="shape=table;startSize=30;container=1;collapsible=1;childLayout=tableLayout;fixedRows=1;rowLines=0;fontStyle=1;align=center;resizeLast=1;html=1;strokeColor=#FFFFFF;fillColor=#FFD966;rounded=1;" parent="1" vertex="1">
          <mxGeometry x="1110" y="475" width="190" height="360" as="geometry" />
        </mxCell>
        <mxCell id="-OWckYxyjtKHmRNjJvkT-59" value="" style="shape=tableRow;horizontal=0;startSize=0;swimlaneHead=0;swimlaneBody=0;fillColor=none;collapsible=0;dropTarget=0;points=[[0,0.5],[1,0.5]];portConstraint=eastwest;top=0;left=0;right=0;bottom=1;" parent="-OWckYxyjtKHmRNjJvkT-58" vertex="1">
          <mxGeometry y="30" width="190" height="30" as="geometry" />
        </mxCell>
        <mxCell id="-OWckYxyjtKHmRNjJvkT-60" value="PK" style="shape=partialRectangle;connectable=0;fillColor=none;top=0;left=0;bottom=0;right=0;fontStyle=1;overflow=hidden;whiteSpace=wrap;html=1;" parent="-OWckYxyjtKHmRNjJvkT-59" vertex="1">
          <mxGeometry width="30" height="30" as="geometry">
            <mxRectangle width="30" height="30" as="alternateBounds" />
          </mxGeometry>
        </mxCell>
        <mxCell id="-OWckYxyjtKHmRNjJvkT-61" value="product_key" style="shape=partialRectangle;connectable=0;fillColor=none;top=0;left=0;bottom=0;right=0;align=left;spacingLeft=6;fontStyle=5;overflow=hidden;whiteSpace=wrap;html=1;" parent="-OWckYxyjtKHmRNjJvkT-59" vertex="1">
          <mxGeometry x="30" width="160" height="30" as="geometry">
            <mxRectangle width="160" height="30" as="alternateBounds" />
          </mxGeometry>
        </mxCell>
        <mxCell id="-OWckYxyjtKHmRNjJvkT-62" value="" style="shape=tableRow;horizontal=0;startSize=0;swimlaneHead=0;swimlaneBody=0;fillColor=none;collapsible=0;dropTarget=0;points=[[0,0.5],[1,0.5]];portConstraint=eastwest;top=0;left=0;right=0;bottom=0;" parent="-OWckYxyjtKHmRNjJvkT-58" vertex="1">
          <mxGeometry y="60" width="190" height="30" as="geometry" />
        </mxCell>
        <mxCell id="-OWckYxyjtKHmRNjJvkT-63" value="" style="shape=partialRectangle;connectable=0;fillColor=none;top=0;left=0;bottom=0;right=0;editable=1;overflow=hidden;whiteSpace=wrap;html=1;" parent="-OWckYxyjtKHmRNjJvkT-62" vertex="1">
          <mxGeometry width="30" height="30" as="geometry">
            <mxRectangle width="30" height="30" as="alternateBounds" />
          </mxGeometry>
        </mxCell>
        <mxCell id="-OWckYxyjtKHmRNjJvkT-64" value="product_id" style="shape=partialRectangle;connectable=0;fillColor=none;top=0;left=0;bottom=0;right=0;align=left;spacingLeft=6;overflow=hidden;whiteSpace=wrap;html=1;" parent="-OWckYxyjtKHmRNjJvkT-62" vertex="1">
          <mxGeometry x="30" width="160" height="30" as="geometry">
            <mxRectangle width="160" height="30" as="alternateBounds" />
          </mxGeometry>
        </mxCell>
        <mxCell id="-OWckYxyjtKHmRNjJvkT-65" value="" style="shape=tableRow;horizontal=0;startSize=0;swimlaneHead=0;swimlaneBody=0;fillColor=none;collapsible=0;dropTarget=0;points=[[0,0.5],[1,0.5]];portConstraint=eastwest;top=0;left=0;right=0;bottom=0;" parent="-OWckYxyjtKHmRNjJvkT-58" vertex="1">
          <mxGeometry y="90" width="190" height="30" as="geometry" />
        </mxCell>
        <mxCell id="-OWckYxyjtKHmRNjJvkT-66" value="" style="shape=partialRectangle;connectable=0;fillColor=none;top=0;left=0;bottom=0;right=0;editable=1;overflow=hidden;whiteSpace=wrap;html=1;" parent="-OWckYxyjtKHmRNjJvkT-65" vertex="1">
          <mxGeometry width="30" height="30" as="geometry">
            <mxRectangle width="30" height="30" as="alternateBounds" />
          </mxGeometry>
        </mxCell>
        <mxCell id="-OWckYxyjtKHmRNjJvkT-67" value="product_number" style="shape=partialRectangle;connectable=0;fillColor=none;top=0;left=0;bottom=0;right=0;align=left;spacingLeft=6;overflow=hidden;whiteSpace=wrap;html=1;" parent="-OWckYxyjtKHmRNjJvkT-65" vertex="1">
          <mxGeometry x="30" width="160" height="30" as="geometry">
            <mxRectangle width="160" height="30" as="alternateBounds" />
          </mxGeometry>
        </mxCell>
        <mxCell id="-OWckYxyjtKHmRNjJvkT-68" value="" style="shape=tableRow;horizontal=0;startSize=0;swimlaneHead=0;swimlaneBody=0;fillColor=none;collapsible=0;dropTarget=0;points=[[0,0.5],[1,0.5]];portConstraint=eastwest;top=0;left=0;right=0;bottom=0;" parent="-OWckYxyjtKHmRNjJvkT-58" vertex="1">
          <mxGeometry y="120" width="190" height="30" as="geometry" />
        </mxCell>
        <mxCell id="-OWckYxyjtKHmRNjJvkT-69" value="" style="shape=partialRectangle;connectable=0;fillColor=none;top=0;left=0;bottom=0;right=0;editable=1;overflow=hidden;whiteSpace=wrap;html=1;" parent="-OWckYxyjtKHmRNjJvkT-68" vertex="1">
          <mxGeometry width="30" height="30" as="geometry">
            <mxRectangle width="30" height="30" as="alternateBounds" />
          </mxGeometry>
        </mxCell>
        <mxCell id="-OWckYxyjtKHmRNjJvkT-70" value="product_name" style="shape=partialRectangle;connectable=0;fillColor=none;top=0;left=0;bottom=0;right=0;align=left;spacingLeft=6;overflow=hidden;whiteSpace=wrap;html=1;" parent="-OWckYxyjtKHmRNjJvkT-68" vertex="1">
          <mxGeometry x="30" width="160" height="30" as="geometry">
            <mxRectangle width="160" height="30" as="alternateBounds" />
          </mxGeometry>
        </mxCell>
        <mxCell id="-OWckYxyjtKHmRNjJvkT-71" style="shape=tableRow;horizontal=0;startSize=0;swimlaneHead=0;swimlaneBody=0;fillColor=none;collapsible=0;dropTarget=0;points=[[0,0.5],[1,0.5]];portConstraint=eastwest;top=0;left=0;right=0;bottom=0;" parent="-OWckYxyjtKHmRNjJvkT-58" vertex="1">
          <mxGeometry y="150" width="190" height="30" as="geometry" />
        </mxCell>
        <mxCell id="-OWckYxyjtKHmRNjJvkT-72" style="shape=partialRectangle;connectable=0;fillColor=none;top=0;left=0;bottom=0;right=0;editable=1;overflow=hidden;whiteSpace=wrap;html=1;" parent="-OWckYxyjtKHmRNjJvkT-71" vertex="1">
          <mxGeometry width="30" height="30" as="geometry">
            <mxRectangle width="30" height="30" as="alternateBounds" />
          </mxGeometry>
        </mxCell>
        <mxCell id="-OWckYxyjtKHmRNjJvkT-73" value="category_id" style="shape=partialRectangle;connectable=0;fillColor=none;top=0;left=0;bottom=0;right=0;align=left;spacingLeft=6;overflow=hidden;whiteSpace=wrap;html=1;" parent="-OWckYxyjtKHmRNjJvkT-71" vertex="1">
          <mxGeometry x="30" width="160" height="30" as="geometry">
            <mxRectangle width="160" height="30" as="alternateBounds" />
          </mxGeometry>
        </mxCell>
        <mxCell id="-OWckYxyjtKHmRNjJvkT-74" style="shape=tableRow;horizontal=0;startSize=0;swimlaneHead=0;swimlaneBody=0;fillColor=none;collapsible=0;dropTarget=0;points=[[0,0.5],[1,0.5]];portConstraint=eastwest;top=0;left=0;right=0;bottom=0;" parent="-OWckYxyjtKHmRNjJvkT-58" vertex="1">
          <mxGeometry y="180" width="190" height="30" as="geometry" />
        </mxCell>
        <mxCell id="-OWckYxyjtKHmRNjJvkT-75" style="shape=partialRectangle;connectable=0;fillColor=none;top=0;left=0;bottom=0;right=0;editable=1;overflow=hidden;whiteSpace=wrap;html=1;" parent="-OWckYxyjtKHmRNjJvkT-74" vertex="1">
          <mxGeometry width="30" height="30" as="geometry">
            <mxRectangle width="30" height="30" as="alternateBounds" />
          </mxGeometry>
        </mxCell>
        <mxCell id="-OWckYxyjtKHmRNjJvkT-76" value="category" style="shape=partialRectangle;connectable=0;fillColor=none;top=0;left=0;bottom=0;right=0;align=left;spacingLeft=6;overflow=hidden;whiteSpace=wrap;html=1;" parent="-OWckYxyjtKHmRNjJvkT-74" vertex="1">
          <mxGeometry x="30" width="160" height="30" as="geometry">
            <mxRectangle width="160" height="30" as="alternateBounds" />
          </mxGeometry>
        </mxCell>
        <mxCell id="-OWckYxyjtKHmRNjJvkT-77" style="shape=tableRow;horizontal=0;startSize=0;swimlaneHead=0;swimlaneBody=0;fillColor=none;collapsible=0;dropTarget=0;points=[[0,0.5],[1,0.5]];portConstraint=eastwest;top=0;left=0;right=0;bottom=0;" parent="-OWckYxyjtKHmRNjJvkT-58" vertex="1">
          <mxGeometry y="210" width="190" height="30" as="geometry" />
        </mxCell>
        <mxCell id="-OWckYxyjtKHmRNjJvkT-78" style="shape=partialRectangle;connectable=0;fillColor=none;top=0;left=0;bottom=0;right=0;editable=1;overflow=hidden;whiteSpace=wrap;html=1;" parent="-OWckYxyjtKHmRNjJvkT-77" vertex="1">
          <mxGeometry width="30" height="30" as="geometry">
            <mxRectangle width="30" height="30" as="alternateBounds" />
          </mxGeometry>
        </mxCell>
        <mxCell id="-OWckYxyjtKHmRNjJvkT-79" value="subcategory" style="shape=partialRectangle;connectable=0;fillColor=none;top=0;left=0;bottom=0;right=0;align=left;spacingLeft=6;overflow=hidden;whiteSpace=wrap;html=1;" parent="-OWckYxyjtKHmRNjJvkT-77" vertex="1">
          <mxGeometry x="30" width="160" height="30" as="geometry">
            <mxRectangle width="160" height="30" as="alternateBounds" />
          </mxGeometry>
        </mxCell>
        <mxCell id="-OWckYxyjtKHmRNjJvkT-80" style="shape=tableRow;horizontal=0;startSize=0;swimlaneHead=0;swimlaneBody=0;fillColor=none;collapsible=0;dropTarget=0;points=[[0,0.5],[1,0.5]];portConstraint=eastwest;top=0;left=0;right=0;bottom=0;" parent="-OWckYxyjtKHmRNjJvkT-58" vertex="1">
          <mxGeometry y="240" width="190" height="30" as="geometry" />
        </mxCell>
        <mxCell id="-OWckYxyjtKHmRNjJvkT-81" style="shape=partialRectangle;connectable=0;fillColor=none;top=0;left=0;bottom=0;right=0;editable=1;overflow=hidden;whiteSpace=wrap;html=1;" parent="-OWckYxyjtKHmRNjJvkT-80" vertex="1">
          <mxGeometry width="30" height="30" as="geometry">
            <mxRectangle width="30" height="30" as="alternateBounds" />
          </mxGeometry>
        </mxCell>
        <mxCell id="-OWckYxyjtKHmRNjJvkT-82" value="maintenance" style="shape=partialRectangle;connectable=0;fillColor=none;top=0;left=0;bottom=0;right=0;align=left;spacingLeft=6;overflow=hidden;whiteSpace=wrap;html=1;" parent="-OWckYxyjtKHmRNjJvkT-80" vertex="1">
          <mxGeometry x="30" width="160" height="30" as="geometry">
            <mxRectangle width="160" height="30" as="alternateBounds" />
          </mxGeometry>
        </mxCell>
        <mxCell id="-OWckYxyjtKHmRNjJvkT-83" style="shape=tableRow;horizontal=0;startSize=0;swimlaneHead=0;swimlaneBody=0;fillColor=none;collapsible=0;dropTarget=0;points=[[0,0.5],[1,0.5]];portConstraint=eastwest;top=0;left=0;right=0;bottom=0;" parent="-OWckYxyjtKHmRNjJvkT-58" vertex="1">
          <mxGeometry y="270" width="190" height="30" as="geometry" />
        </mxCell>
        <mxCell id="-OWckYxyjtKHmRNjJvkT-84" style="shape=partialRectangle;connectable=0;fillColor=none;top=0;left=0;bottom=0;right=0;editable=1;overflow=hidden;whiteSpace=wrap;html=1;" parent="-OWckYxyjtKHmRNjJvkT-83" vertex="1">
          <mxGeometry width="30" height="30" as="geometry">
            <mxRectangle width="30" height="30" as="alternateBounds" />
          </mxGeometry>
        </mxCell>
        <mxCell id="-OWckYxyjtKHmRNjJvkT-85" value="cost" style="shape=partialRectangle;connectable=0;fillColor=none;top=0;left=0;bottom=0;right=0;align=left;spacingLeft=6;overflow=hidden;whiteSpace=wrap;html=1;" parent="-OWckYxyjtKHmRNjJvkT-83" vertex="1">
          <mxGeometry x="30" width="160" height="30" as="geometry">
            <mxRectangle width="160" height="30" as="alternateBounds" />
          </mxGeometry>
        </mxCell>
        <mxCell id="-OWckYxyjtKHmRNjJvkT-86" style="shape=tableRow;horizontal=0;startSize=0;swimlaneHead=0;swimlaneBody=0;fillColor=none;collapsible=0;dropTarget=0;points=[[0,0.5],[1,0.5]];portConstraint=eastwest;top=0;left=0;right=0;bottom=0;" parent="-OWckYxyjtKHmRNjJvkT-58" vertex="1">
          <mxGeometry y="300" width="190" height="30" as="geometry" />
        </mxCell>
        <mxCell id="-OWckYxyjtKHmRNjJvkT-87" style="shape=partialRectangle;connectable=0;fillColor=none;top=0;left=0;bottom=0;right=0;editable=1;overflow=hidden;whiteSpace=wrap;html=1;" parent="-OWckYxyjtKHmRNjJvkT-86" vertex="1">
          <mxGeometry width="30" height="30" as="geometry">
            <mxRectangle width="30" height="30" as="alternateBounds" />
          </mxGeometry>
        </mxCell>
        <mxCell id="-OWckYxyjtKHmRNjJvkT-88" value="product_line" style="shape=partialRectangle;connectable=0;fillColor=none;top=0;left=0;bottom=0;right=0;align=left;spacingLeft=6;overflow=hidden;whiteSpace=wrap;html=1;" parent="-OWckYxyjtKHmRNjJvkT-86" vertex="1">
          <mxGeometry x="30" width="160" height="30" as="geometry">
            <mxRectangle width="160" height="30" as="alternateBounds" />
          </mxGeometry>
        </mxCell>
        <mxCell id="-OWckYxyjtKHmRNjJvkT-89" style="shape=tableRow;horizontal=0;startSize=0;swimlaneHead=0;swimlaneBody=0;fillColor=none;collapsible=0;dropTarget=0;points=[[0,0.5],[1,0.5]];portConstraint=eastwest;top=0;left=0;right=0;bottom=0;" parent="-OWckYxyjtKHmRNjJvkT-58" vertex="1">
          <mxGeometry y="330" width="190" height="30" as="geometry" />
        </mxCell>
        <mxCell id="-OWckYxyjtKHmRNjJvkT-90" style="shape=partialRectangle;connectable=0;fillColor=none;top=0;left=0;bottom=0;right=0;editable=1;overflow=hidden;whiteSpace=wrap;html=1;" parent="-OWckYxyjtKHmRNjJvkT-89" vertex="1">
          <mxGeometry width="30" height="30" as="geometry">
            <mxRectangle width="30" height="30" as="alternateBounds" />
          </mxGeometry>
        </mxCell>
        <mxCell id="-OWckYxyjtKHmRNjJvkT-91" value="start_date" style="shape=partialRectangle;connectable=0;fillColor=none;top=0;left=0;bottom=0;right=0;align=left;spacingLeft=6;overflow=hidden;whiteSpace=wrap;html=1;" parent="-OWckYxyjtKHmRNjJvkT-89" vertex="1">
          <mxGeometry x="30" width="160" height="30" as="geometry">
            <mxRectangle width="160" height="30" as="alternateBounds" />
          </mxGeometry>
        </mxCell>
        <mxCell id="-OWckYxyjtKHmRNjJvkT-96" value="&lt;font style=&quot;color: rgb(0, 0, 0);&quot;&gt;gold.fact_sales&lt;/font&gt;" style="shape=table;startSize=30;container=1;collapsible=1;childLayout=tableLayout;fixedRows=1;rowLines=0;fontStyle=1;align=center;resizeLast=1;html=1;strokeColor=default;fillColor=light-dark(#001DBC,#6B9BFF);rounded=1;" parent="1" vertex="1">
          <mxGeometry x="760" y="510" width="220" height="300" as="geometry" />
        </mxCell>
        <mxCell id="-OWckYxyjtKHmRNjJvkT-100" value="" style="shape=tableRow;horizontal=0;startSize=0;swimlaneHead=0;swimlaneBody=0;fillColor=none;collapsible=0;dropTarget=0;points=[[0,0.5],[1,0.5]];portConstraint=eastwest;top=0;left=0;right=0;bottom=0;" parent="-OWckYxyjtKHmRNjJvkT-96" vertex="1">
          <mxGeometry y="30" width="220" height="30" as="geometry" />
        </mxCell>
        <mxCell id="-OWckYxyjtKHmRNjJvkT-101" value="" style="shape=partialRectangle;connectable=0;fillColor=none;top=0;left=0;bottom=0;right=0;editable=1;overflow=hidden;whiteSpace=wrap;html=1;" parent="-OWckYxyjtKHmRNjJvkT-100" vertex="1">
          <mxGeometry width="40" height="30" as="geometry">
            <mxRectangle width="40" height="30" as="alternateBounds" />
          </mxGeometry>
        </mxCell>
        <mxCell id="-OWckYxyjtKHmRNjJvkT-102" value="order_number" style="shape=partialRectangle;connectable=0;fillColor=none;top=0;left=0;bottom=0;right=0;align=left;spacingLeft=6;overflow=hidden;whiteSpace=wrap;html=1;" parent="-OWckYxyjtKHmRNjJvkT-100" vertex="1">
          <mxGeometry x="40" width="180" height="30" as="geometry">
            <mxRectangle width="180" height="30" as="alternateBounds" />
          </mxGeometry>
        </mxCell>
        <mxCell id="-OWckYxyjtKHmRNjJvkT-103" value="" style="shape=tableRow;horizontal=0;startSize=0;swimlaneHead=0;swimlaneBody=0;fillColor=none;collapsible=0;dropTarget=0;points=[[0,0.5],[1,0.5]];portConstraint=eastwest;top=0;left=0;right=0;bottom=0;" parent="-OWckYxyjtKHmRNjJvkT-96" vertex="1">
          <mxGeometry y="60" width="220" height="30" as="geometry" />
        </mxCell>
        <mxCell id="-OWckYxyjtKHmRNjJvkT-104" value="FK1" style="shape=partialRectangle;connectable=0;fillColor=none;top=0;left=0;bottom=0;right=0;editable=1;overflow=hidden;whiteSpace=wrap;html=1;" parent="-OWckYxyjtKHmRNjJvkT-103" vertex="1">
          <mxGeometry width="40" height="30" as="geometry">
            <mxRectangle width="40" height="30" as="alternateBounds" />
          </mxGeometry>
        </mxCell>
        <mxCell id="-OWckYxyjtKHmRNjJvkT-105" value="product_key" style="shape=partialRectangle;connectable=0;fillColor=none;top=0;left=0;bottom=0;right=0;align=left;spacingLeft=6;overflow=hidden;whiteSpace=wrap;html=1;" parent="-OWckYxyjtKHmRNjJvkT-103" vertex="1">
          <mxGeometry x="40" width="180" height="30" as="geometry">
            <mxRectangle width="180" height="30" as="alternateBounds" />
          </mxGeometry>
        </mxCell>
        <mxCell id="-OWckYxyjtKHmRNjJvkT-106" value="" style="shape=tableRow;horizontal=0;startSize=0;swimlaneHead=0;swimlaneBody=0;fillColor=none;collapsible=0;dropTarget=0;points=[[0,0.5],[1,0.5]];portConstraint=eastwest;top=0;left=0;right=0;bottom=0;" parent="-OWckYxyjtKHmRNjJvkT-96" vertex="1">
          <mxGeometry y="90" width="220" height="30" as="geometry" />
        </mxCell>
        <mxCell id="-OWckYxyjtKHmRNjJvkT-107" value="FK2" style="shape=partialRectangle;connectable=0;fillColor=none;top=0;left=0;bottom=0;right=0;editable=1;overflow=hidden;whiteSpace=wrap;html=1;" parent="-OWckYxyjtKHmRNjJvkT-106" vertex="1">
          <mxGeometry width="40" height="30" as="geometry">
            <mxRectangle width="40" height="30" as="alternateBounds" />
          </mxGeometry>
        </mxCell>
        <mxCell id="-OWckYxyjtKHmRNjJvkT-108" value="customer_key" style="shape=partialRectangle;connectable=0;fillColor=none;top=0;left=0;bottom=0;right=0;align=left;spacingLeft=6;overflow=hidden;whiteSpace=wrap;html=1;" parent="-OWckYxyjtKHmRNjJvkT-106" vertex="1">
          <mxGeometry x="40" width="180" height="30" as="geometry">
            <mxRectangle width="180" height="30" as="alternateBounds" />
          </mxGeometry>
        </mxCell>
        <mxCell id="-OWckYxyjtKHmRNjJvkT-109" style="shape=tableRow;horizontal=0;startSize=0;swimlaneHead=0;swimlaneBody=0;fillColor=none;collapsible=0;dropTarget=0;points=[[0,0.5],[1,0.5]];portConstraint=eastwest;top=0;left=0;right=0;bottom=0;" parent="-OWckYxyjtKHmRNjJvkT-96" vertex="1">
          <mxGeometry y="120" width="220" height="30" as="geometry" />
        </mxCell>
        <mxCell id="-OWckYxyjtKHmRNjJvkT-110" style="shape=partialRectangle;connectable=0;fillColor=none;top=0;left=0;bottom=0;right=0;editable=1;overflow=hidden;whiteSpace=wrap;html=1;" parent="-OWckYxyjtKHmRNjJvkT-109" vertex="1">
          <mxGeometry width="40" height="30" as="geometry">
            <mxRectangle width="40" height="30" as="alternateBounds" />
          </mxGeometry>
        </mxCell>
        <mxCell id="-OWckYxyjtKHmRNjJvkT-111" value="order date" style="shape=partialRectangle;connectable=0;fillColor=none;top=0;left=0;bottom=0;right=0;align=left;spacingLeft=6;overflow=hidden;whiteSpace=wrap;html=1;" parent="-OWckYxyjtKHmRNjJvkT-109" vertex="1">
          <mxGeometry x="40" width="180" height="30" as="geometry">
            <mxRectangle width="180" height="30" as="alternateBounds" />
          </mxGeometry>
        </mxCell>
        <mxCell id="-OWckYxyjtKHmRNjJvkT-112" style="shape=tableRow;horizontal=0;startSize=0;swimlaneHead=0;swimlaneBody=0;fillColor=none;collapsible=0;dropTarget=0;points=[[0,0.5],[1,0.5]];portConstraint=eastwest;top=0;left=0;right=0;bottom=0;" parent="-OWckYxyjtKHmRNjJvkT-96" vertex="1">
          <mxGeometry y="150" width="220" height="30" as="geometry" />
        </mxCell>
        <mxCell id="-OWckYxyjtKHmRNjJvkT-113" style="shape=partialRectangle;connectable=0;fillColor=none;top=0;left=0;bottom=0;right=0;editable=1;overflow=hidden;whiteSpace=wrap;html=1;" parent="-OWckYxyjtKHmRNjJvkT-112" vertex="1">
          <mxGeometry width="40" height="30" as="geometry">
            <mxRectangle width="40" height="30" as="alternateBounds" />
          </mxGeometry>
        </mxCell>
        <mxCell id="-OWckYxyjtKHmRNjJvkT-114" value="shipping_date" style="shape=partialRectangle;connectable=0;fillColor=none;top=0;left=0;bottom=0;right=0;align=left;spacingLeft=6;overflow=hidden;whiteSpace=wrap;html=1;" parent="-OWckYxyjtKHmRNjJvkT-112" vertex="1">
          <mxGeometry x="40" width="180" height="30" as="geometry">
            <mxRectangle width="180" height="30" as="alternateBounds" />
          </mxGeometry>
        </mxCell>
        <mxCell id="-OWckYxyjtKHmRNjJvkT-115" style="shape=tableRow;horizontal=0;startSize=0;swimlaneHead=0;swimlaneBody=0;fillColor=none;collapsible=0;dropTarget=0;points=[[0,0.5],[1,0.5]];portConstraint=eastwest;top=0;left=0;right=0;bottom=0;" parent="-OWckYxyjtKHmRNjJvkT-96" vertex="1">
          <mxGeometry y="180" width="220" height="30" as="geometry" />
        </mxCell>
        <mxCell id="-OWckYxyjtKHmRNjJvkT-116" style="shape=partialRectangle;connectable=0;fillColor=none;top=0;left=0;bottom=0;right=0;editable=1;overflow=hidden;whiteSpace=wrap;html=1;" parent="-OWckYxyjtKHmRNjJvkT-115" vertex="1">
          <mxGeometry width="40" height="30" as="geometry">
            <mxRectangle width="40" height="30" as="alternateBounds" />
          </mxGeometry>
        </mxCell>
        <mxCell id="-OWckYxyjtKHmRNjJvkT-117" value="due_date" style="shape=partialRectangle;connectable=0;fillColor=none;top=0;left=0;bottom=0;right=0;align=left;spacingLeft=6;overflow=hidden;whiteSpace=wrap;html=1;" parent="-OWckYxyjtKHmRNjJvkT-115" vertex="1">
          <mxGeometry x="40" width="180" height="30" as="geometry">
            <mxRectangle width="180" height="30" as="alternateBounds" />
          </mxGeometry>
        </mxCell>
        <mxCell id="-OWckYxyjtKHmRNjJvkT-118" style="shape=tableRow;horizontal=0;startSize=0;swimlaneHead=0;swimlaneBody=0;fillColor=none;collapsible=0;dropTarget=0;points=[[0,0.5],[1,0.5]];portConstraint=eastwest;top=0;left=0;right=0;bottom=0;" parent="-OWckYxyjtKHmRNjJvkT-96" vertex="1">
          <mxGeometry y="210" width="220" height="30" as="geometry" />
        </mxCell>
        <mxCell id="-OWckYxyjtKHmRNjJvkT-119" style="shape=partialRectangle;connectable=0;fillColor=none;top=0;left=0;bottom=0;right=0;editable=1;overflow=hidden;whiteSpace=wrap;html=1;" parent="-OWckYxyjtKHmRNjJvkT-118" vertex="1">
          <mxGeometry width="40" height="30" as="geometry">
            <mxRectangle width="40" height="30" as="alternateBounds" />
          </mxGeometry>
        </mxCell>
        <mxCell id="-OWckYxyjtKHmRNjJvkT-120" value="sales_amount" style="shape=partialRectangle;connectable=0;fillColor=none;top=0;left=0;bottom=0;right=0;align=left;spacingLeft=6;overflow=hidden;whiteSpace=wrap;html=1;" parent="-OWckYxyjtKHmRNjJvkT-118" vertex="1">
          <mxGeometry x="40" width="180" height="30" as="geometry">
            <mxRectangle width="180" height="30" as="alternateBounds" />
          </mxGeometry>
        </mxCell>
        <mxCell id="-OWckYxyjtKHmRNjJvkT-121" style="shape=tableRow;horizontal=0;startSize=0;swimlaneHead=0;swimlaneBody=0;fillColor=none;collapsible=0;dropTarget=0;points=[[0,0.5],[1,0.5]];portConstraint=eastwest;top=0;left=0;right=0;bottom=0;" parent="-OWckYxyjtKHmRNjJvkT-96" vertex="1">
          <mxGeometry y="240" width="220" height="30" as="geometry" />
        </mxCell>
        <mxCell id="-OWckYxyjtKHmRNjJvkT-122" style="shape=partialRectangle;connectable=0;fillColor=none;top=0;left=0;bottom=0;right=0;editable=1;overflow=hidden;whiteSpace=wrap;html=1;" parent="-OWckYxyjtKHmRNjJvkT-121" vertex="1">
          <mxGeometry width="40" height="30" as="geometry">
            <mxRectangle width="40" height="30" as="alternateBounds" />
          </mxGeometry>
        </mxCell>
        <mxCell id="-OWckYxyjtKHmRNjJvkT-123" value="quantity" style="shape=partialRectangle;connectable=0;fillColor=none;top=0;left=0;bottom=0;right=0;align=left;spacingLeft=6;overflow=hidden;whiteSpace=wrap;html=1;" parent="-OWckYxyjtKHmRNjJvkT-121" vertex="1">
          <mxGeometry x="40" width="180" height="30" as="geometry">
            <mxRectangle width="180" height="30" as="alternateBounds" />
          </mxGeometry>
        </mxCell>
        <mxCell id="-OWckYxyjtKHmRNjJvkT-124" style="shape=tableRow;horizontal=0;startSize=0;swimlaneHead=0;swimlaneBody=0;fillColor=none;collapsible=0;dropTarget=0;points=[[0,0.5],[1,0.5]];portConstraint=eastwest;top=0;left=0;right=0;bottom=0;" parent="-OWckYxyjtKHmRNjJvkT-96" vertex="1">
          <mxGeometry y="270" width="220" height="30" as="geometry" />
        </mxCell>
        <mxCell id="-OWckYxyjtKHmRNjJvkT-125" style="shape=partialRectangle;connectable=0;fillColor=none;top=0;left=0;bottom=0;right=0;editable=1;overflow=hidden;whiteSpace=wrap;html=1;" parent="-OWckYxyjtKHmRNjJvkT-124" vertex="1">
          <mxGeometry width="40" height="30" as="geometry">
            <mxRectangle width="40" height="30" as="alternateBounds" />
          </mxGeometry>
        </mxCell>
        <mxCell id="-OWckYxyjtKHmRNjJvkT-126" value="price" style="shape=partialRectangle;connectable=0;fillColor=none;top=0;left=0;bottom=0;right=0;align=left;spacingLeft=6;overflow=hidden;whiteSpace=wrap;html=1;" parent="-OWckYxyjtKHmRNjJvkT-124" vertex="1">
          <mxGeometry x="40" width="180" height="30" as="geometry">
            <mxRectangle width="180" height="30" as="alternateBounds" />
          </mxGeometry>
        </mxCell>
        <mxCell id="-OWckYxyjtKHmRNjJvkT-130" value="" style="edgeStyle=entityRelationEdgeStyle;fontSize=12;html=1;endArrow=ERzeroToMany;startArrow=ERmandOne;rounded=0;entryX=0;entryY=0.5;entryDx=0;entryDy=0;exitX=1;exitY=0.5;exitDx=0;exitDy=0;" parent="1" source="-OWckYxyjtKHmRNjJvkT-25" target="-OWckYxyjtKHmRNjJvkT-106" edge="1">
          <mxGeometry width="100" height="100" relative="1" as="geometry">
            <mxPoint x="700" y="770" as="sourcePoint" />
            <mxPoint x="800" y="670" as="targetPoint" />
          </mxGeometry>
        </mxCell>
        <mxCell id="-OWckYxyjtKHmRNjJvkT-134" value="" style="edgeStyle=entityRelationEdgeStyle;fontSize=12;html=1;endArrow=ERzeroToMany;startArrow=ERmandOne;rounded=0;entryX=1;entryY=0.5;entryDx=0;entryDy=0;exitX=0;exitY=0.5;exitDx=0;exitDy=0;" parent="1" source="-OWckYxyjtKHmRNjJvkT-59" target="-OWckYxyjtKHmRNjJvkT-103" edge="1">
          <mxGeometry width="100" height="100" relative="1" as="geometry">
            <mxPoint x="1080" y="650" as="sourcePoint" />
            <mxPoint x="1290" y="790" as="targetPoint" />
          </mxGeometry>
        </mxCell>
        <mxCell id="-OWckYxyjtKHmRNjJvkT-135" value="&lt;font style=&quot;font-size: 32px;&quot;&gt;&lt;b&gt;Sales Data Mart&lt;/b&gt; (Star Schema)&lt;/font&gt;" style="whiteSpace=wrap;html=1;fillColor=none;strokeColor=none;" parent="1" vertex="1">
          <mxGeometry x="640" y="380" width="480" height="60" as="geometry" />
        </mxCell>
      </root>
    </mxGraphModel>
  </diagram>
</mxfile>
